<svg width="421" height="404" viewBox="0 0 421 404" fill="none" xmlns="http://www.w3.org/2000/svg">
<path d="M237.245 401.142C220.832 393.374 214.292 374.905 211.979 357.703C211.589 354.847 210.77 351.877 211.703 349.135C212.636 346.393 215.511 344.156 218.272 344.927C220.566 345.565 221.908 347.869 223.441 349.687C225.479 352.14 228.174 353.963 231.209 354.942C233.189 355.58 235.54 355.78 237.168 354.485C239.396 352.705 239.072 349.259 238.615 346.422C237.682 341.161 236.769 335.899 235.874 330.638C235.229 327.831 235.039 324.938 235.312 322.07C235.731 319.214 237.264 316.358 239.834 315.178C242.404 313.997 246.012 314.959 247.05 317.643C247.356 318.798 247.585 319.971 247.735 321.156C248.012 322.327 248.783 323.536 249.954 323.679C251.125 323.822 252.143 322.822 252.857 321.842C255.294 318.481 256.665 314.454 257.903 310.465C259.14 306.477 260.302 302.412 262.434 298.832C264.567 295.253 267.822 292.168 271.849 291.216C275.876 290.264 280.636 292.073 282.321 295.891C284.006 299.708 282.378 304.173 280.417 307.847C277.439 313.289 273.691 318.271 269.288 322.641C268.41 323.341 267.777 324.301 267.48 325.383C267.185 327.382 269.298 328.963 271.288 329.267C273.515 329.61 275.781 329.001 278.037 328.886C280.293 328.772 282.854 329.343 284.054 331.295C285.701 333.999 283.787 337.454 281.74 339.863C277.629 344.661 272.725 348.718 267.242 351.858C265.281 352.972 263.196 354.019 261.758 355.77C260.321 357.522 259.74 360.245 261.092 362.073C262.444 363.9 265.176 364.1 267.289 363.32C269.403 362.539 271.164 361.025 273.115 359.893C276.771 357.76 281.855 357.17 284.93 360.121C285.889 361.153 286.595 362.393 286.993 363.745C287.391 365.096 287.47 366.521 287.224 367.908C286.717 370.671 285.659 373.304 284.111 375.648C279.181 384.123 272.092 391.139 263.567 395.982C255.047 400.647 246.803 402.922 237.254 401.152" fill="#F5F5F5"/>
<path d="M239.844 389.661C241.107 379.864 242.931 370.147 245.309 360.559L247.136 353.01C247.736 350.525 248.336 348.069 249.04 345.708C250.464 341.177 252.136 336.728 254.048 332.38C255.847 328.21 257.703 324.307 259.465 320.68C261.226 317.053 262.949 313.702 264.643 310.722C267.289 305.996 270.306 301.489 273.668 297.242C274.858 295.738 275.82 294.605 276.477 293.844C276.791 293.482 277.048 293.196 277.229 292.977C277.41 292.759 277.495 292.692 277.505 292.701C277.436 292.811 277.359 292.916 277.276 293.016L276.553 293.91C275.924 294.691 274.992 295.814 273.83 297.366C270.542 301.654 267.579 306.182 264.967 310.913C263.301 313.902 261.607 317.253 259.855 320.88C258.103 324.507 256.275 328.41 254.495 332.58C252.6 336.928 250.947 341.377 249.545 345.908C248.812 348.259 248.222 350.668 247.641 353.181L245.813 360.74C243.441 370.308 241.607 380.002 240.32 389.775" fill="#E0E0E0"/>
<path d="M249.202 345.67C248.996 345.299 248.833 344.907 248.716 344.499C248.431 343.747 248.06 342.595 247.622 341.253C246.746 338.492 245.661 334.636 244.48 330.39C243.3 326.145 242.167 322.308 241.243 319.576C240.786 318.205 240.406 317.091 240.139 316.339C239.979 315.948 239.855 315.543 239.768 315.13C239.998 315.485 240.186 315.865 240.329 316.263C240.663 316.996 241.091 318.091 241.596 319.443C242.614 322.165 243.804 325.983 244.994 330.248C246.184 334.513 247.184 338.244 247.983 341.138C248.355 342.452 248.659 343.556 248.935 344.442C249.06 344.843 249.149 345.253 249.202 345.67Z" fill="#E0E0E0"/>
<path d="M284.568 332.666C284.108 332.858 283.629 333.001 283.14 333.094C282.188 333.332 280.884 333.675 279.246 334.151C275.962 335.103 271.478 336.512 266.594 338.321C261.711 340.129 257.36 341.967 254.219 343.376C252.657 344.071 251.41 344.67 250.544 345.08C250.109 345.317 249.653 345.514 249.183 345.67C249.576 345.366 250.001 345.105 250.449 344.889C251.286 344.423 252.515 343.775 254.057 342.985C257.132 341.481 261.473 339.587 266.366 337.768C270.542 336.206 274.797 334.862 279.113 333.742C280.769 333.304 282.121 333.018 283.064 332.837C283.559 332.733 284.062 332.676 284.568 332.666Z" fill="#E0E0E0"/>
<path d="M240.177 388.928C240.055 388.803 239.947 388.666 239.853 388.519L239.006 387.31C238.273 386.244 237.255 384.692 236.026 382.75C233.551 378.866 230.315 373.392 226.821 367.299C223.327 361.206 220.157 355.713 217.748 351.791L214.892 347.136L214.131 345.87C214.03 345.73 213.95 345.576 213.893 345.413C213.893 345.413 214.017 345.537 214.216 345.813C214.416 346.089 214.731 346.536 215.064 347.031C215.797 348.088 216.815 349.64 218.053 351.591C220.519 355.475 223.765 360.94 227.259 367.032C230.752 373.125 233.923 378.618 236.322 382.55L239.178 387.196C239.482 387.7 239.739 388.148 239.939 388.462C240.041 388.604 240.121 388.762 240.177 388.928Z" fill="#E0E0E0"/>
<path d="M286.044 365.081C285.91 365.198 285.759 365.294 285.596 365.367L284.273 366.071L279.361 368.632C275.21 370.802 269.517 373.858 263.234 377.2C256.951 380.541 251.23 383.597 247.051 385.672C244.956 386.71 243.243 387.576 242.062 388.081L240.634 388.709C240.477 388.792 240.311 388.856 240.139 388.9C240.275 388.785 240.426 388.689 240.587 388.614L241.919 387.91L246.832 385.339C250.973 383.178 256.666 380.122 262.949 376.771C269.232 373.42 274.963 370.384 279.132 368.308C281.227 367.271 282.94 366.404 284.121 365.9L285.492 365.271C285.665 365.18 285.851 365.116 286.044 365.081Z" fill="#E0E0E0"/>
<path d="M118.208 196.798C118.208 196.798 106.899 198.369 113.249 223.14C119.598 247.91 124.987 260.686 124.987 260.686C124.987 260.686 125.834 266.293 121.312 266.122C116.79 265.951 107.565 262.314 104.433 267.16C101.196 272.224 104.033 278.317 111.097 284.705C118.161 291.093 133.221 305.648 134.573 306.972C135.925 308.295 136.915 311.018 133.812 311.389C130.708 311.76 108.698 309.18 108.108 319.7C107.518 330.219 130.203 344.765 132.65 346.403C135.097 348.04 135.506 349.316 134.935 350.744C134.364 352.172 127.071 350.601 120.779 350.116C114.486 349.63 107.099 350.192 107.261 356.285C107.422 362.377 119.341 377.799 154.089 389.261L170.549 393.517L182.705 381.541C207.172 354.323 209.847 335.027 206.962 329.657C204.078 324.288 197.442 327.477 192.168 331.019C186.894 334.56 181.373 339.587 180.192 338.635C179.012 337.683 178.707 336.369 180.021 333.732C181.335 331.095 193.796 307.2 188.046 298.366C182.296 289.531 164.475 302.688 161.619 303.897C158.763 305.106 158.249 302.231 158.763 300.441C159.277 298.651 165.084 278.545 168.073 269.454C171.063 260.362 170.492 253.68 165.16 250.9C160.02 248.225 153.841 255.993 149.995 258.392C146.149 260.791 144.112 255.536 144.112 255.536C144.112 255.536 142.437 241.78 135.639 217.123C128.842 192.467 117.999 196.884 117.999 196.884" fill="#EBEBEB"/>
<path d="M170.539 397.61C165.617 379.522 157.402 347.155 150.214 319.366C143.027 291.578 136.496 266.522 131.66 248.377C129.242 239.314 127.281 231.984 125.948 226.891C125.282 224.368 124.758 222.397 124.396 221.045L123.997 219.522C123.911 219.18 123.882 218.999 123.882 218.999C123.882 218.999 123.949 219.16 124.054 219.503C124.158 219.846 124.301 220.37 124.492 221.017C124.882 222.369 125.444 224.32 126.148 226.833C127.576 231.889 129.594 239.209 132.05 248.272C136.972 266.36 143.569 291.502 150.757 319.233C157.944 346.965 166.093 379.361 170.929 397.505" fill="#E0E0E0"/>
<path d="M117.133 272.814C117.514 272.971 117.877 273.166 118.219 273.395C118.894 273.795 119.865 274.404 121.075 275.166C123.445 276.698 126.672 278.898 130.185 281.382L139.153 287.78L141.885 289.684C142.229 289.898 142.549 290.15 142.837 290.436C142.453 290.28 142.086 290.086 141.742 289.855C141.066 289.455 140.095 288.846 138.886 288.075C136.535 286.523 133.336 284.267 129.823 281.792L120.808 275.461L118.066 273.557C117.73 273.343 117.417 273.094 117.133 272.814Z" fill="#E0E0E0"/>
<path d="M144.217 289.645C144.093 289.569 148.329 282.725 153.67 274.357C159.011 265.989 163.456 259.268 163.58 259.344C163.704 259.42 159.468 266.274 154.117 274.642C148.767 283.01 144.341 289.703 144.217 289.645Z" fill="#E0E0E0"/>
<path d="M153.337 332.751C153.6 332.423 153.904 332.128 154.241 331.876L156.802 329.629C158.963 327.725 161.943 325.097 165.122 322.07C168.302 319.043 171.101 316.215 173.1 314.15C174.052 313.198 174.833 312.35 175.47 311.703C175.759 311.384 176.077 311.094 176.422 310.837C176.212 311.201 175.956 311.536 175.661 311.836C175.147 312.455 174.376 313.331 173.405 314.397C171.501 316.539 168.721 319.424 165.522 322.451C162.323 325.478 159.315 328.087 157.087 329.914C155.964 330.866 155.05 331.552 154.403 332.037C154.075 332.314 153.717 332.553 153.337 332.751Z" fill="#E0E0E0"/>
<path d="M125.491 322.917C125.875 322.963 126.253 323.056 126.615 323.193L129.632 324.145C132.165 324.955 135.658 326.107 139.504 327.401C143.35 328.696 146.825 329.914 149.329 330.819L152.29 331.904C152.658 332.019 153.013 332.176 153.346 332.371C152.962 332.332 152.584 332.242 152.223 332.104L149.205 331.152C146.673 330.343 143.179 329.191 139.333 327.887C135.487 326.582 132.012 325.373 129.509 324.479L126.548 323.384C126.176 323.276 125.821 323.12 125.491 322.917Z" fill="#E0E0E0"/>
<path d="M128.709 361.997C129.199 362.07 129.68 362.191 130.146 362.358L134.011 363.539C137.267 364.557 141.751 365.995 146.701 367.623C151.652 369.251 156.116 370.736 159.344 371.85L163.152 373.182C163.625 373.334 164.087 373.522 164.532 373.744C164.039 373.672 163.554 373.55 163.085 373.382L159.22 372.202C155.964 371.183 151.48 369.746 146.53 368.118C141.58 366.49 137.115 364.995 133.897 363.891L130.089 362.549C129.613 362.407 129.151 362.222 128.709 361.997Z" fill="#E0E0E0"/>
<path d="M163.752 373.22C164.087 372.809 164.46 372.429 164.866 372.087L168.017 369.127C170.673 366.623 174.328 363.148 178.26 359.198C182.192 355.247 185.666 351.582 188.161 348.916L191.112 345.755C191.459 345.352 191.838 344.976 192.245 344.632C191.967 345.08 191.649 345.501 191.293 345.889C190.645 346.679 189.674 347.793 188.437 349.164C186.009 351.905 182.582 355.618 178.631 359.569C174.68 363.52 171.015 366.966 168.274 369.403C166.903 370.612 165.789 371.592 164.999 372.259C164.611 372.613 164.193 372.935 163.752 373.22Z" fill="#E0E0E0"/>
<path d="M69.086 49.0787L59.7946 46.2228C59.7946 46.2228 57.3575 54.0291 49.2085 51.6396C47.6309 51.2052 46.2273 50.2911 45.1921 49.0238C44.1568 47.7566 43.541 46.1989 43.43 44.5663C43.308 43.1896 43.5165 41.8036 44.0381 40.5237C44.5596 39.2438 45.3793 38.1068 46.4287 37.2075C48.8182 35.0941 53.007 33.8089 58.9188 36.8648L65.4589 15.9211L56.2723 13.0651L52.4643 25.3362C52.4643 25.3362 38.5273 24.6413 34.1005 38.8354C29.8642 52.4202 41.0595 59.3792 46.2764 61.0071C50.2367 62.2447 64.1452 65.5195 69.086 49.0787Z" fill="#F5F5F5"/>
<path d="M57.5168 8.70593L66.8408 11.6154L69.5574 2.90937L60.2335 -8.21026e-05L57.5168 8.70593Z" fill="#F5F5F5"/>
<path d="M94.7234 25.4315L98.4457 24.4795C98.332 24.0568 98.3046 23.6155 98.3649 23.182C98.4252 22.7484 98.572 22.3314 98.7967 21.9557C99.0214 21.5801 99.3193 21.2534 99.6728 20.9952C100.026 20.737 100.428 20.5525 100.854 20.4526C101.474 20.2654 102.137 20.2757 102.751 20.4821C103.366 20.6885 103.9 21.0807 104.281 21.6045C104.605 22.0394 104.821 22.5447 104.912 23.0791C105.003 23.6136 104.966 24.1619 104.805 24.6794C104.453 25.8884 103.32 27.2022 100.692 27.4211L102.91 35.8081L106.585 34.8562L105.29 29.9439C106.684 29.1034 107.762 27.8279 108.359 26.314C108.956 24.8001 109.039 23.1318 108.594 21.5664C107.166 16.1211 101.93 16.1496 99.8641 16.6923C98.2648 17.0635 92.9242 18.8818 94.7234 25.4315Z" fill="#EBEBEB"/>
<path d="M107.881 36.0792L104.132 37.0841L105.07 40.5839L108.82 39.5789L107.881 36.0792Z" fill="#EBEBEB"/>
<path d="M402.034 121.782L405.651 123.086C405.803 122.676 406.035 122.301 406.334 121.983C406.633 121.664 406.993 121.409 407.392 121.231C407.791 121.054 408.222 120.958 408.659 120.95C409.095 120.941 409.529 121.02 409.935 121.182C410.545 121.378 411.078 121.758 411.464 122.269C411.849 122.78 412.066 123.398 412.087 124.038C412.109 124.584 412.002 125.128 411.773 125.624C411.545 126.121 411.202 126.556 410.773 126.894C409.821 127.684 408.117 128.113 405.832 126.799L402.871 134.957L406.451 136.252L408.184 131.492C409.808 131.593 411.421 131.157 412.775 130.253C414.128 129.348 415.147 128.024 415.676 126.485C417.58 121.192 413.286 118.25 411.258 117.517C409.707 116.908 404.28 115.375 402.034 121.782Z" fill="#EBEBEB"/>
<path d="M405.915 137.906L402.281 136.59L401.052 139.982L404.686 141.298L405.915 137.906Z" fill="#EBEBEB"/>
<path d="M18.117 163.212L25.7329 160.261C25.7329 160.261 23.2577 153.835 29.893 151.141C31.1629 150.604 32.5683 150.474 33.9153 150.769C35.2623 151.064 36.4846 151.769 37.4137 152.788C38.2042 153.635 38.7835 154.657 39.1044 155.77C39.4253 156.884 39.4788 158.057 39.2606 159.195C38.7846 161.841 36.6902 164.907 31.1782 165.964L37.8421 183.223L45.458 180.31L41.5548 170.2C41.5548 170.2 51.0747 163.365 46.6099 151.655C42.2784 140.46 31.1972 141.736 26.9419 143.382C23.6575 144.649 12.7668 149.761 18.117 163.212Z" fill="#F5F5F5"/>
<path d="M46.9004 183.823L39.2163 186.783L41.9817 193.961L49.6658 191.001L46.9004 183.823Z" fill="#F5F5F5"/>
<path d="M405.013 192.257L399.587 194.342C399.587 194.342 401.339 198.902 396.636 200.806C395.735 201.182 394.741 201.273 393.787 201.065C392.834 200.857 391.967 200.362 391.305 199.645C390.745 199.044 390.335 198.32 390.108 197.531C389.881 196.742 389.844 195.91 390 195.104C390.343 193.2 391.828 191.067 395.712 190.344L391.048 178.073L385.678 180.139L388.439 187.307C386.485 188.802 385.076 190.897 384.43 193.271C383.783 195.645 383.934 198.165 384.86 200.444C387.916 208.374 395.741 207.48 398.787 206.309C401.091 205.404 408.802 201.787 405.013 192.257Z" fill="#F5F5F5"/>
<path d="M384.616 177.652L390.062 175.554L388.104 170.473L382.659 172.571L384.616 177.652Z" fill="#F5F5F5"/>
<path d="M420.34 402.77C420.34 402.913 326.236 403.018 210.179 403.018C94.1228 403.018 0 402.913 0 402.77C0 402.627 94.0847 402.523 210.179 402.523C326.274 402.523 420.34 402.637 420.34 402.77Z" fill="#263238"/>
<path d="M60.365 378.047C61.317 374.544 58.9656 371.031 56.3952 368.527C53.8249 366.023 50.7499 363.719 49.4076 360.359C47.2371 354.914 50.1502 347.869 46.4565 343.328C44.2764 340.662 40.3733 339.768 38.4408 336.912C37.5472 335.337 36.9563 333.61 36.6986 331.818C34.6445 322.774 30.1957 314.448 23.8183 307.714C23.3884 315.77 25.1344 323.794 28.8733 330.943C30.3679 333.799 32.2148 336.578 32.6813 339.768C33.4904 344.937 30.5964 350.239 31.8721 355.342C33.3286 361.149 39.8497 365.043 40.1543 371.021C40.4209 376.076 36.0132 380.541 36.3464 385.568C36.6134 387.72 37.3937 389.777 38.6217 391.565C42.5248 398.067 48.2748 402.541 56.9759 402.399L67.6382 402.77L60.365 378.047Z" fill="#EB664E"/>
<g opacity="0.3">
<path d="M60.3652 378.047C61.3172 374.543 58.9658 371.031 56.3955 368.527C53.8251 366.023 50.7502 363.719 49.4079 360.359C47.2374 354.914 50.1504 347.869 46.4567 343.328C44.2767 340.662 40.3735 339.767 38.441 336.911C37.5475 335.337 36.9566 333.61 36.6989 331.818C34.6447 322.774 30.1959 314.448 23.8185 307.714C23.3886 315.77 25.1347 323.794 28.8736 330.943C30.3682 333.798 32.215 336.578 32.6815 339.767C33.4907 344.937 30.5967 350.239 31.8723 355.342C33.3289 361.149 39.85 365.043 40.1546 371.021C40.4211 376.076 36.0135 380.541 36.3467 385.567C36.6136 387.72 37.3939 389.777 38.6219 391.565C42.525 398.067 48.275 402.541 56.9762 402.399L67.6384 402.77L60.3652 378.047Z" fill="black"/>
</g>
<path d="M69.7899 402.989C70.7664 403.14 71.7616 403.12 72.7315 402.932C73.9092 402.753 75.0665 402.459 76.1873 402.056C77.735 401.518 79.1827 400.726 80.4712 399.714C81.2465 399.091 81.8522 398.282 82.2324 397.363C82.5508 396.332 82.7176 395.261 82.7274 394.183C82.7488 393.03 82.8347 391.88 82.9844 390.737C83.185 389.52 83.6251 388.355 84.2791 387.31C85.5358 385.101 87.6301 383.007 88.2965 380.008C88.9629 377.009 88.5059 373.868 88.0109 370.669C87.5159 367.47 87.0589 364.005 88.2584 360.654C89.4579 357.303 91.7427 354.304 92.9136 350.553C94.0846 346.803 93.5324 342.671 93.7799 338.644C93.853 336.599 94.3252 334.587 95.1698 332.723C96.0266 330.819 97.2261 329.058 98.1591 327.077C100.063 323.06 100.387 318.51 100.901 314.045C101.158 311.798 101.405 309.523 101.662 307.238C101.824 304.928 102.223 302.641 102.852 300.412C103.575 298.166 104.427 295.963 105.404 293.815C105.907 292.704 106.321 291.555 106.641 290.378C106.821 289.16 106.935 287.934 106.984 286.704C107.098 284.241 107.002 281.773 106.698 279.326C106.413 276.87 105.965 274.433 105.699 271.967C105.699 271.815 105.699 271.672 105.699 271.539L105.642 271.053L105.213 271.263C102.962 272.418 101.008 274.076 99.5014 276.108C98.0238 278.098 96.8348 280.287 95.9695 282.61C94.1893 287.189 93.5515 291.987 92.6566 296.566C91.7617 301.145 90.6194 305.648 88.2775 309.456C87.1065 311.36 85.6881 313.093 84.4695 314.94C83.1463 316.742 82.2422 318.817 81.823 321.013C81.1852 325.526 83.6699 329.486 83.1558 333.484C82.9238 335.443 82.2746 337.329 81.2518 339.015C80.2998 340.719 79.1479 342.3 78.0627 343.88C76.9627 345.43 76.0067 347.078 75.2067 348.802C74.4537 350.489 74.0088 352.298 73.893 354.142C73.6359 357.741 74.1405 361.149 73.893 364.367C73.5957 367.434 72.6998 370.412 71.256 373.135C69.9708 375.753 68.5333 378.123 67.3338 380.427C66.734 381.569 66.1724 382.692 65.7154 383.825C65.283 384.913 64.964 386.042 64.7634 387.195C64.4448 389.209 64.4191 391.258 64.6873 393.279C64.967 396.096 66.0214 398.782 67.7336 401.037C67.9954 401.378 68.2852 401.697 68.5999 401.989C68.8102 402.21 69.0431 402.408 69.2949 402.579C69.6947 402.875 69.9042 403.008 69.9042 403.008C69.1431 402.406 68.4504 401.723 67.8383 400.971C66.2039 398.707 65.2166 396.041 64.9824 393.26C64.74 391.264 64.7849 389.245 65.1157 387.262C65.3161 386.137 65.6352 385.036 66.0676 383.978C66.55 382.832 67.0934 381.714 67.6955 380.627C68.9046 378.342 70.3516 375.981 71.6653 373.344C73.1523 370.579 74.0776 367.548 74.388 364.424C74.6736 361.14 74.1786 357.712 74.4451 354.209C74.5677 352.424 75.0027 350.674 75.7303 349.04C76.5353 347.351 77.4911 345.739 78.5863 344.223C79.6715 342.642 80.8234 341.062 81.8135 339.32C82.9001 337.57 83.5951 335.605 83.8507 333.561C84.3648 329.305 81.8992 325.326 82.537 321.128C82.9543 319.027 83.8286 317.045 85.0978 315.32C86.3069 313.502 87.7348 311.77 88.9058 309.818C91.3333 305.905 92.5043 301.317 93.3896 296.719C94.275 292.121 94.9318 287.361 96.6835 282.867C97.526 280.609 98.6829 278.481 100.12 276.546C101.569 274.596 103.449 273.006 105.613 271.9L105.128 271.624C105.128 271.767 105.128 271.91 105.175 272.062C105.442 274.556 105.889 276.994 106.127 279.431C106.428 281.839 106.52 284.27 106.403 286.694C106.355 287.886 106.247 289.074 106.08 290.255C105.772 291.393 105.371 292.505 104.88 293.577C103.898 295.748 103.04 297.973 102.31 300.241C101.675 302.504 101.273 304.827 101.11 307.171C100.863 309.466 100.606 311.741 100.358 313.988C99.8441 318.472 99.5109 322.946 97.6926 326.82C96.7406 328.724 95.5982 330.543 94.7129 332.485C93.8416 334.419 93.3565 336.505 93.2849 338.625C93.0469 342.738 93.58 346.765 92.4662 350.401C91.3524 354.038 89.0391 357.065 87.8681 360.502C86.6972 363.938 87.1256 367.575 87.6396 370.764C88.1537 373.953 88.6678 377.095 87.9824 379.922C87.2969 382.75 85.3358 384.863 84.0602 387.129C83.3876 388.22 82.9379 389.433 82.7369 390.699C82.5931 391.855 82.5168 393.018 82.5084 394.183C82.51 395.234 82.356 396.28 82.0515 397.286C81.6989 398.158 81.1325 398.928 80.4046 399.524C79.1506 400.535 77.7386 401.332 76.2253 401.884C75.1193 402.311 73.9748 402.63 72.8077 402.836C72.0944 402.966 71.3716 403.036 70.6467 403.046C70.047 402.989 69.7899 402.989 69.7899 402.989Z" fill="#263238"/>
<path d="M103.471 277.422C103.421 277.524 103.385 277.633 103.367 277.746L103.138 278.698C102.929 279.545 102.672 280.811 102.272 282.391C101.872 283.972 100.891 285.761 100.063 287.96C99.0932 290.436 98.2481 292.959 97.531 295.519C96.7123 298.375 95.9983 301.517 95.2367 304.906C94.5895 308.516 93.4424 312.018 91.8286 315.311C90.9528 317.044 89.9246 318.795 89.1916 320.718C88.4229 322.682 87.9079 324.736 87.6589 326.83C87.1174 331.167 86.3484 335.473 85.3551 339.729C83.2227 348.459 81.1854 356.779 79.329 364.357C77.4727 371.935 75.721 378.713 74.274 384.444C72.827 390.175 71.7322 394.745 70.9325 398.01C70.5612 399.571 70.2661 400.799 70.0567 401.704C69.971 402.094 69.8949 402.408 69.8377 402.656C69.8272 402.766 69.8272 402.878 69.8377 402.989C69.893 402.89 69.9347 402.785 69.9615 402.675C70.0281 402.418 70.1233 402.113 70.2376 401.723C70.4756 400.837 70.8088 399.609 71.2372 398.058C72.0939 394.821 73.303 390.223 74.7976 384.558C76.2922 378.894 78.0343 372.04 79.9859 364.51C81.9375 356.979 83.9176 348.602 86.0691 339.863C87.0561 335.595 87.8061 331.276 88.3158 326.925C88.559 324.881 89.058 322.876 89.8009 320.956C90.5529 319.052 91.5144 317.348 92.3903 315.597C94.2942 312.122 95.0463 308.39 95.7984 305.03C96.5504 301.669 97.2168 298.489 97.9975 295.652C98.7781 292.816 99.5968 290.283 100.416 288.094C101.234 285.904 102.139 284.095 102.529 282.458C102.919 280.821 103.1 279.602 103.271 278.726C103.335 278.333 103.392 278.015 103.443 277.774C103.471 277.536 103.49 277.422 103.471 277.422Z" fill="#263238"/>
<path d="M71.6745 403.036C78.6335 398.895 80.6327 386.329 77.7292 378.77C74.8256 371.212 69.742 364.3 68.9614 356.237C68.3521 350.039 70.3894 343.68 68.9614 337.625C67.0098 329.448 59.0322 323.117 59.1274 314.711C59.175 309.999 61.8596 305.563 61.6406 300.85C61.3836 295.081 56.9473 290.493 54.2056 285.409C49.9978 277.612 49.7217 268.407 48.2842 259.705C46.8468 251.004 43.5243 241.618 35.7752 237.324C34.6328 244.74 32.6812 249.824 33.2905 259.867C33.519 263.475 37.7077 270.339 38.2789 278.288C38.6216 283.048 38.8501 287.751 39.1452 292.473C39.4403 297.195 39.7259 301.764 41.3728 306.067C42.639 309.371 44.6667 312.369 45.6092 315.777C47.3703 322.184 45.0475 329.105 46.4755 335.617C47.6845 341.119 51.4924 345.851 52.2731 351.429C53.3583 359.264 48.2938 367.413 50.8832 374.886C52.1779 378.599 55.2242 381.55 56.0905 385.406C56.7664 388.376 56.0334 391.527 56.6427 394.507C57.5947 399.324 66.7909 403.075 71.6936 402.76" fill="#EB664E"/>
<path d="M37.6794 244.645C37.6664 244.784 37.6664 244.925 37.6794 245.064C37.6794 245.378 37.7746 245.778 37.8317 246.283C37.9936 247.358 38.1745 248.929 38.5362 250.966C38.898 253.004 39.9832 255.307 40.821 258.087C41.6587 260.867 42.5917 264.047 43.3723 267.607C44.1529 271.167 44.8383 275.137 45.5333 279.393C46.2282 283.648 46.9898 288.284 49.1032 292.72C50.0552 294.939 51.1786 297.166 51.9592 299.546C52.7591 301.982 53.2516 304.509 53.4253 307.067C53.8145 312.494 54.4977 317.897 55.472 323.251C57.6045 334.236 59.6322 344.699 61.4791 354.228C63.3259 363.758 65.1823 372.259 66.6674 379.456C68.1525 386.653 69.371 392.403 70.2183 396.458L71.1703 401.075C71.2845 401.57 71.3702 401.961 71.4463 402.265C71.4721 402.405 71.5103 402.542 71.5606 402.675C71.5774 402.536 71.5774 402.395 71.5606 402.256C71.5035 401.942 71.4368 401.551 71.3511 401.047C71.1417 399.943 70.8466 398.381 70.4753 396.401C69.6757 392.336 68.5713 386.529 67.1339 379.361C65.6964 372.192 63.9923 363.596 62.0978 354.104C60.2034 344.613 58.2899 334.113 56.1479 323.136C55.173 317.782 54.4866 312.38 54.0917 306.953C53.9105 304.342 53.4019 301.764 52.578 299.28C51.7307 296.862 50.6169 294.624 49.6364 292.416C47.542 288.046 46.7804 283.486 46.0569 279.25C45.3334 275.013 44.6384 271.034 43.8102 267.455C42.982 263.875 42.0776 260.677 41.1446 257.935C40.2117 255.193 39.174 252.87 38.7552 250.881C38.3363 248.891 38.1364 247.292 37.9365 246.235C37.8413 245.74 37.7651 245.34 37.708 245.026C37.706 244.899 37.6964 244.771 37.6794 244.645Z" fill="#263238"/>
<path d="M373.406 45.7756H369.598C369.601 46.2075 369.517 46.6355 369.351 47.0343C369.185 47.4331 368.941 47.7946 368.633 48.0973C368.325 48.4 367.959 48.6379 367.557 48.7967C367.156 48.9555 366.726 49.0321 366.295 49.0218C365.657 49.0447 365.028 48.8681 364.496 48.5165C363.963 48.165 363.554 47.6561 363.324 47.0608C363.124 46.565 363.043 46.0288 363.09 45.4961C363.136 44.9633 363.308 44.449 363.591 43.9954C364.238 42.9291 365.647 41.9676 368.199 42.4151V33.8472H364.457V38.8546C362.922 39.3066 361.577 40.2498 360.63 41.5396C359.682 42.8293 359.184 44.3944 359.212 45.9945C359.212 51.5351 364.181 52.8203 366.314 52.8203C367.941 52.8583 373.482 52.468 373.406 45.7756Z" fill="#EB664E"/>
<path d="M364.429 32.1144H368.227V28.5635H364.429V32.1144Z" fill="#EB664E"/>
<path d="M394.169 40.711C394.182 40.5494 394.182 40.387 394.169 40.2255C394.169 39.8827 394.169 39.4163 394.169 38.8165C394.169 38.5119 394.169 38.1597 394.121 37.7789C394.074 37.3981 394.017 36.9792 393.95 36.5413C393.883 36.1034 393.817 35.5893 393.741 35.0847L393.341 33.4664C392.634 30.6793 391.476 28.0264 389.914 25.6125C387.645 22.0376 384.587 19.0305 380.974 16.8223C377.362 14.6142 373.291 13.2638 369.075 12.8749C367.809 12.7631 366.536 12.7376 365.267 12.7988C364.629 12.7988 363.972 12.7988 363.363 12.9225L361.402 13.2176C358.711 13.7177 356.107 14.606 353.671 15.8546C351.129 17.2 348.792 18.9023 346.732 20.9097C344.622 23.0477 342.859 25.5015 341.505 28.1828C340.049 30.9471 339.095 33.948 338.687 37.0458C338.568 37.8307 338.502 38.6226 338.487 39.4163C338.424 40.2111 338.408 41.009 338.44 41.8058C338.647 46.9126 340.243 51.8663 343.057 56.1331V55.838C341.734 59.1414 340.429 62.3877 339.154 65.5483L338.925 66.129L339.525 65.9576L349.902 63.1017L349.654 63.0446C353.149 65.6902 357.22 67.4714 361.535 68.2424C363.536 68.6155 365.576 68.7402 367.609 68.6137C368.589 68.5991 369.566 68.5067 370.531 68.3376L371.95 68.1186C372.416 68.033 372.902 67.8902 373.32 67.7854C379.715 66.165 385.324 62.3212 389.142 56.9423C390.567 54.9608 391.71 52.792 392.541 50.4974C392.722 49.9928 392.893 49.5454 393.055 49.0504C393.217 48.5553 393.303 48.0984 393.407 47.67C393.512 47.2416 393.626 46.8037 393.722 46.4038C393.817 46.004 393.845 45.6137 393.902 45.2424C393.988 44.5094 394.121 43.862 394.15 43.3384C394.178 42.8149 394.15 42.3103 394.15 41.9105C394.15 41.5106 394.15 41.2631 394.15 41.0442C394.15 40.8252 394.15 40.749 394.15 40.749C394.135 40.8469 394.135 40.9463 394.15 41.0442C394.15 41.2631 394.15 41.5487 394.083 41.9105C394.017 42.2722 394.026 42.7768 393.988 43.3289C393.95 43.8811 393.807 44.5284 393.693 45.2329C392.785 50.5018 390.367 55.3936 386.731 59.3143C383.096 63.235 378.401 66.0158 373.216 67.319C372.768 67.4237 372.321 67.557 371.864 67.6426L370.465 67.8521C369.52 68.0097 368.566 68.0956 367.609 68.1091C365.614 68.2143 363.613 68.0833 361.649 67.7188C357.435 66.9433 353.461 65.1926 350.044 62.6066L349.93 62.5114H349.787L339.401 65.3674L339.763 65.7767L343.676 56.076L343.733 55.9237L343.647 55.7809C341.772 52.9447 340.442 49.7842 339.725 46.461C339.396 44.9192 339.199 43.3523 339.135 41.7772C339.103 40.9995 339.119 40.2206 339.182 39.4448C339.188 38.6701 339.252 37.8968 339.373 37.1315C339.738 34.1063 340.637 31.1699 342.029 28.4589C343.352 25.8385 345.07 23.4369 347.122 21.3381C349.138 19.3674 351.427 17.697 353.919 16.3782C356.3 15.1397 358.85 14.2577 361.487 13.7603L363.391 13.4651C364.029 13.3699 364.667 13.3795 365.295 13.3319C366.536 13.2728 367.78 13.2951 369.017 13.3985C373.164 13.7615 377.174 15.0647 380.742 17.2091C384.31 19.3535 387.342 22.2827 389.609 25.7743C391.18 28.1461 392.357 30.7566 393.093 33.5044L393.522 35.1038C393.607 35.6083 393.683 36.0558 393.76 36.5317C393.836 37.0077 393.893 37.3885 393.96 37.7693C394.026 38.1501 394.007 38.4928 394.036 38.7975C394.036 39.3877 394.112 39.8542 394.14 40.1969C394.122 40.3687 394.132 40.5423 394.169 40.711Z" fill="#263238"/>
<path d="M110.278 152.979H165.256C165.256 152.979 165.256 106.817 213.226 105.998C238.14 105.56 251.058 121.887 256.313 134.386C262.406 148.904 260.559 165.45 252.391 178.92C243.071 194.295 222.984 209.745 185.933 203.215L185.58 325.707H239.948V253.089C239.948 253.089 316.193 233.383 316.193 149.323C316.193 68.9277 251.182 51.5635 216.234 50.4402C196.795 49.8214 189.75 48.9836 165.703 52.4013C135.059 56.7804 109.631 92.3656 110.278 152.979Z" fill="#EB664E"/>
<path d="M240.605 351.239H185.428V402.77H240.605V351.239Z" fill="#EB664E"/>
<path opacity="0.1" d="M240.605 351.239H185.428V402.77H240.605V351.239Z" fill="black"/>
<path opacity="0.1" d="M110.278 152.979H165.256C165.256 152.979 165.256 106.817 213.226 105.998C238.14 105.56 251.058 121.887 256.313 134.386C262.406 148.904 260.559 165.45 252.391 178.92C243.071 194.295 222.984 209.745 185.933 203.215L185.58 325.707H239.948V253.089C239.948 253.089 316.193 233.383 316.193 149.323C316.193 68.9277 251.182 51.5635 216.234 50.4402C196.795 49.8214 189.75 48.9836 165.703 52.4013C135.059 56.7804 109.631 92.3656 110.278 152.979Z" fill="black"/>
<path d="M87.4973 152.979H142.484C142.484 152.979 142.484 106.817 190.454 105.998C215.368 105.56 228.286 121.887 233.532 134.386C239.634 148.904 237.787 165.45 229.619 178.92C220.299 194.295 199.86 208.27 162.809 201.768V325.707H217.177V253.089C217.177 253.089 293.421 233.383 293.421 149.323C293.421 68.9277 221.318 50.2593 190.464 50.2593C166.864 50.2879 86.4596 55.9903 87.4973 152.979Z" fill="#EB664E"/>
<path opacity="0.3" d="M87.4973 152.979H142.484C142.484 152.979 142.484 106.817 190.454 105.998C215.368 105.56 228.286 121.887 233.532 134.386C239.634 148.904 237.787 165.45 229.619 178.92C220.299 194.295 199.86 208.27 162.809 201.768V325.707H217.177V253.089C217.177 253.089 293.421 233.383 293.421 149.323C293.421 68.9277 221.318 50.2593 190.464 50.2593C166.864 50.2879 86.4596 55.9903 87.4973 152.979Z" fill="black"/>
<path d="M217.834 351.239H162.657V402.77H217.834V351.239Z" fill="#EB664E"/>
<path opacity="0.3" d="M217.834 351.239H162.657V402.77H217.834V351.239Z" fill="black"/>
<path d="M196.661 106.245C196.389 106.269 196.115 106.269 195.843 106.245C195.3 106.245 194.519 106.065 193.501 106.055C190.621 105.914 187.734 106.035 184.876 106.417C180.637 106.953 176.467 107.933 172.433 109.339C170.055 110.171 167.739 111.17 165.503 112.329C163.085 113.537 160.809 115.009 158.715 116.717C156.636 118.442 154.772 120.411 153.165 122.582C151.642 124.589 150.252 126.694 149.005 128.884C146.923 132.613 145.272 136.567 144.083 140.669C143.277 143.438 142.723 146.274 142.427 149.142C142.312 150.151 142.284 150.951 142.255 151.484C142.256 151.759 142.23 152.033 142.179 152.303C142.154 152.03 142.154 151.756 142.179 151.484C142.179 150.941 142.179 150.142 142.265 149.123C142.484 146.224 142.991 143.354 143.778 140.555C144.923 136.405 146.553 132.405 148.634 128.636C149.883 126.422 151.279 124.295 152.813 122.267C154.433 120.061 156.32 118.063 158.429 116.317C160.549 114.585 162.854 113.094 165.303 111.872C167.553 110.691 169.885 109.673 172.281 108.825C176.351 107.424 180.561 106.467 184.838 105.969C187.715 105.616 190.62 105.549 193.51 105.769C194.296 105.82 195.078 105.915 195.852 106.055C196.126 106.099 196.396 106.163 196.661 106.245Z" fill="#263238"/>
<path d="M279.503 96.4496C279.503 96.4496 279.436 96.383 279.322 96.2402C279.208 96.0974 279.036 95.8499 278.846 95.5738L277.028 93.0034C276.637 92.4513 276.219 91.8134 275.724 91.1566L274.01 89.0717L272.049 86.6632C271.335 85.8255 270.497 85.0163 269.659 84.1309C268.822 83.2456 267.965 82.3031 266.994 81.3987C266.023 80.4943 264.985 79.5709 263.919 78.6189C263.386 78.1429 262.862 77.6669 262.291 77.1624L260.52 75.763C259.311 74.811 258.112 73.859 256.808 72.907C251.123 68.8398 245.093 65.2785 238.786 62.2638L233.77 59.9981L228.791 58.0941C227.163 57.4182 225.506 56.9422 223.907 56.4091C222.308 55.876 220.746 55.3334 219.147 54.9621L214.597 53.7721C213.121 53.3818 211.655 53.1438 210.255 52.8201C208.856 52.4964 207.504 52.2108 206.181 52.049L202.373 51.4969C199.965 51.0875 197.756 51.0018 195.833 50.8114C194.881 50.7353 193.929 50.6305 193.139 50.5925L190.873 50.5353L187.731 50.4306H186.913H186.637C186.728 50.4164 186.821 50.4164 186.913 50.4306H187.731H190.873H193.148C193.977 50.4306 194.881 50.5449 195.852 50.6115C197.756 50.7733 200.003 50.84 202.411 51.2303L206.219 51.7444C207.542 51.8967 208.894 52.2394 210.303 52.4964C211.712 52.7535 213.159 53.02 214.673 53.4484L219.242 54.6289C220.823 54.9906 222.384 55.5809 224.002 56.0664C225.621 56.5519 227.267 57.0184 228.895 57.7419L233.903 59.6458L238.948 61.9211C245.288 64.9426 251.342 68.5303 257.036 72.6404C258.35 73.5924 259.549 74.6111 260.758 75.5535L262.529 76.8387C263.1 77.3147 263.624 77.7907 264.157 78.3048L267.222 81.1607C268.174 82.1127 269.031 83.0647 269.878 83.931C270.726 84.7973 271.535 85.6446 272.249 86.4918L274.153 88.9194L275.847 91.0328C276.333 91.6992 276.742 92.3465 277.123 92.9368C277.865 94.0506 278.446 94.9264 278.856 95.5547L279.303 96.2497C279.378 96.3074 279.445 96.3746 279.503 96.4496Z" fill="#263238"/>
<path d="M273.772 214.496C273.659 214.702 273.522 214.894 273.363 215.067L272.049 216.619C271.507 217.314 270.821 218.142 269.974 219.065C269.127 219.989 268.222 221.074 267.118 222.197C266.014 223.321 264.833 224.577 263.491 225.844C262.149 227.11 260.692 228.442 259.14 229.832C252.334 235.773 244.873 240.918 236.902 245.169C235.055 246.121 233.313 247.073 231.628 247.806C229.943 248.539 228.372 249.291 226.925 249.9C225.478 250.51 224.145 251.014 222.984 251.461C221.822 251.909 220.804 252.271 219.966 252.537L218.062 253.156C217.841 253.244 217.611 253.308 217.377 253.346C217.582 253.229 217.799 253.133 218.024 253.061L219.928 252.356C220.756 252.061 221.756 251.68 222.908 251.204C224.06 250.728 225.392 250.252 226.82 249.577C228.248 248.901 229.829 248.263 231.476 247.435C233.123 246.606 234.884 245.731 236.721 244.769C240.348 242.77 244.261 240.428 248.212 237.724C252.162 235.021 255.713 232.174 258.874 229.49C260.425 228.119 261.911 226.834 263.234 225.539C264.557 224.244 265.795 223.073 266.889 221.95C267.984 220.827 268.946 219.789 269.803 218.875C270.659 217.961 271.364 217.161 271.935 216.495L273.268 214.981C273.423 214.806 273.591 214.644 273.772 214.496Z" fill="#263238"/>
<path d="M216.215 321.385C216.072 321.385 215.958 306.096 215.958 287.237C215.958 268.378 216.072 253.08 216.215 253.08C216.358 253.08 216.463 268.369 216.463 287.237C216.463 306.105 216.348 321.385 216.215 321.385Z" fill="#263238"/>
<path d="M218.309 399.276C218.166 399.276 218.062 388.547 218.062 375.315C218.062 362.082 218.166 351.344 218.309 351.344C218.452 351.344 218.557 362.073 218.557 375.315C218.557 388.557 218.443 399.276 218.309 399.276Z" fill="#263238"/>
<path d="M272.429 145.677C271.477 147.581 275.028 149.142 277.075 149.761C279.163 150.273 281.324 150.421 283.463 150.199C286.319 150.046 289.241 149.78 291.707 148.371C293.866 147.033 295.592 145.099 296.676 142.802C297.745 140.512 298.59 138.124 299.199 135.671C299.199 135.671 276.704 137.137 272.429 145.677Z" fill="#EB664E"/>
<g opacity="0.4">
<path d="M272.429 145.677C271.477 147.581 275.028 149.142 277.075 149.761C279.163 150.273 281.324 150.421 283.462 150.199C286.318 150.046 289.241 149.78 291.707 148.371C293.866 147.033 295.592 145.099 296.676 142.802C297.745 140.512 298.59 138.124 299.199 135.671C299.199 135.671 276.703 137.137 272.429 145.677Z" fill="black"/>
</g>
<path d="M335.965 139.584C339.674 142.215 344.118 143.607 348.665 143.563C350.844 143.685 352.993 143.008 354.71 141.659C355.443 140.984 355.995 140.127 356.747 139.479C357.261 139.042 357.861 138.708 358.346 138.242C358.602 138.021 358.8 137.741 358.921 137.425C359.043 137.109 359.084 136.769 359.041 136.433C358.853 135.606 358.39 134.868 357.727 134.339C355.148 132.873 352.063 132.93 349.093 132.996C346.12 133.125 343.184 133.7 340.382 134.7C338.078 135.481 335.67 136.604 334.499 138.699" fill="#EB664E"/>
<g opacity="0.4">
<path d="M359.041 136.433C358.705 135.63 358.112 134.961 357.356 134.529C354.776 133.063 352.063 132.93 349.093 132.996C346.12 133.125 343.184 133.699 340.382 134.7C338.078 135.481 335.67 136.604 334.499 138.699L335.965 139.584C339.674 142.215 344.118 143.607 348.665 143.563C350.844 143.685 352.993 143.008 354.71 141.659C355.443 140.983 355.995 140.127 356.747 139.479C357.261 139.041 357.861 138.708 358.346 138.242C358.602 138.021 358.8 137.74 358.921 137.425C359.043 137.109 359.084 136.768 359.041 136.433Z" fill="black"/>
</g>
<path d="M292.04 173.751L339.497 174.379C339.593 174.379 339.689 174.356 339.775 174.312C339.861 174.269 339.936 174.205 339.993 174.128C340.05 174.05 340.089 173.96 340.105 173.865C340.121 173.769 340.115 173.672 340.087 173.579L334.518 156.215C334.518 156.215 335.337 147.533 336.469 137.099C338.192 121.249 340.487 101.324 340.515 101.381C337.269 92.2798 318.115 90.7376 318.115 90.7376L296.286 92.0323L295.524 90.7471L289.241 93.6697C287.871 94.3073 286.553 95.0521 285.3 95.8974C281.15 98.6676 271.154 105.036 269.326 112.129C265.109 128.55 272.248 146.876 272.248 146.876L276.837 143.287C277.993 142.397 279.208 141.586 280.474 140.86L289.67 165.507C289.123 165.852 288.659 166.314 288.313 166.861C287.967 167.408 287.748 168.025 287.671 168.667C287.594 170.666 288.623 173.065 292.04 173.751Z" fill="#EB664E"/>
<g opacity="0.3">
<path d="M312.403 144.696C313.907 136.604 313.117 128.284 312.308 120.097C309.68 126.761 309.775 134.377 306.986 140.984C306.644 141.681 306.395 142.42 306.244 143.183C306.171 143.565 306.19 143.96 306.299 144.334C306.408 144.708 306.605 145.051 306.872 145.334C307.633 146.029 308.776 145.648 309.785 145.534C310.688 145.362 311.567 145.08 312.403 144.696Z" fill="black"/>
</g>
<g opacity="0.4">
<path d="M294.896 163.431C298.704 164.755 302.76 162.289 306.786 161.851C309.452 161.565 312.118 162.175 314.764 162.603C320.116 163.469 325.56 163.603 330.948 163.003C331.774 162.957 332.584 162.747 333.328 162.384C333.712 162.122 334.027 161.77 334.244 161.358C334.462 160.947 334.575 160.489 334.575 160.023C325.607 159.071 316.649 158.557 307.681 157.634C305.449 157.253 303.163 157.327 300.96 157.853C298.257 158.69 296.2 160.813 294.296 162.917" fill="black"/>
</g>
<path d="M357.67 133.311C353.796 124.581 340.135 100.439 340.135 100.439L329.558 113.7L332.024 139.736C332.024 139.736 337.612 133.501 353.234 133.377C354.369 133.423 355.48 133.721 356.485 134.252C357.49 134.782 358.363 135.531 359.041 136.443L357.67 133.311Z" fill="#EB664E"/>
<path d="M294.163 128.693C293.409 126.842 292.81 124.932 292.373 122.981C291.782 121.081 291.349 119.136 291.079 117.165C291.822 119.019 292.417 120.929 292.859 122.877C293.45 124.777 293.886 126.722 294.163 128.693Z" fill="#263238"/>
<path d="M328.758 111.938C329.103 112.182 329.422 112.459 329.71 112.767C330.551 113.579 331.34 114.444 332.071 115.356C334.533 118.365 336.263 121.904 337.126 125.695C337.574 127.79 337.674 129.945 337.421 132.073C337.183 134.024 336.812 135.738 336.565 137.185C336.317 138.632 336.165 139.813 336.089 140.631C336.087 141.057 336.042 141.481 335.955 141.897C335.888 141.473 335.869 141.041 335.898 140.612C335.94 139.446 336.048 138.282 336.222 137.128C336.422 135.671 336.755 133.939 336.974 132.025C337.194 129.945 337.082 127.844 336.641 125.799C335.788 122.079 334.135 118.59 331.795 115.575C330.053 113.233 328.682 112.015 328.758 111.938Z" fill="#263238"/>
<path d="M319.067 171.656C318.736 171.804 318.387 171.906 318.029 171.961C317.622 172.068 317.209 172.148 316.791 172.199C316.306 172.266 315.754 172.37 315.135 172.399C313.685 172.532 312.225 172.532 310.775 172.399C309 172.217 307.247 171.866 305.539 171.352C303.839 170.805 302.195 170.101 300.627 169.248C299.355 168.538 298.148 167.72 297.019 166.801C296.524 166.42 296.124 166.021 295.762 165.687C295.45 165.406 295.154 165.108 294.877 164.793C294.612 164.548 294.384 164.265 294.201 163.955C294.267 163.888 295.286 165.031 297.238 166.525C298.378 167.393 299.584 168.169 300.846 168.848C302.396 169.663 304.014 170.341 305.682 170.876C307.361 171.382 309.081 171.738 310.822 171.942C312.245 172.095 313.677 172.14 315.106 172.075C317.553 171.942 319.048 171.58 319.067 171.656Z" fill="#263238"/>
<path d="M333.718 166.249C333.942 166.68 334.069 167.154 334.09 167.639C334.242 168.8 334.154 169.979 333.833 171.104C333.506 172.255 332.843 173.283 331.929 174.055C331.234 174.636 330.701 174.817 330.672 174.769C330.643 174.722 331.091 174.408 331.691 173.817C332.461 173.014 333.02 172.033 333.318 170.961C334.08 168.448 333.537 166.259 333.718 166.249Z" fill="#263238"/>
<path d="M331.138 169.6C331.345 170.579 331.262 171.597 330.9 172.53C330.539 173.463 329.913 174.271 329.101 174.855C328.996 174.75 329.881 173.808 330.434 172.351C330.986 170.895 330.995 169.61 331.138 169.6Z" fill="#263238"/>
<path d="M322.646 138.28C322.142 139.133 321.576 139.947 320.952 140.717C320.46 141.577 319.903 142.398 319.286 143.173C319.469 142.168 319.901 141.226 320.543 140.431C321.05 139.547 321.774 138.807 322.646 138.28Z" fill="#263238"/>
<path d="M290.069 115.223C289.344 114.797 288.642 114.333 287.965 113.833C284.58 111.609 280.737 110.174 276.722 109.635C275.882 109.573 275.046 109.462 274.219 109.301C275.062 109.185 275.917 109.185 276.761 109.301C280.885 109.653 284.835 111.125 288.184 113.557C288.887 114.022 289.521 114.583 290.069 115.223Z" fill="#263238"/>
<path d="M340.135 100.124C338.431 101.496 336.839 103.002 335.375 104.627C334.026 106.361 332.82 108.202 331.767 110.13C331.88 109.481 332.102 108.857 332.424 108.283C333.113 106.855 333.976 105.519 334.994 104.303C336.015 103.091 337.186 102.013 338.478 101.095C338.97 100.679 339.531 100.35 340.135 100.124Z" fill="#263238"/>
<path d="M320.542 92.2798C320.629 92.4171 320.699 92.5641 320.752 92.7177C320.938 93.1489 321.087 93.5946 321.199 94.0505C321.601 95.747 321.601 97.5138 321.199 99.2103C320.607 101.743 319.251 104.032 317.315 105.769C314.872 107.839 311.759 108.949 308.557 108.892C305.352 108.903 302.23 107.878 299.656 105.969C297.605 104.403 295.94 102.387 294.791 100.077C294.017 98.5294 293.472 96.8779 293.173 95.1739C293.086 94.7148 293.028 94.2505 293.002 93.784C292.975 93.62 292.975 93.4528 293.002 93.2889C293.002 93.2889 293.106 93.9553 293.373 95.1358C293.743 96.7917 294.329 98.392 295.115 99.8957C296.276 102.137 297.926 104.089 299.942 105.608C302.422 107.445 305.423 108.445 308.509 108.464C311.595 108.52 314.599 107.466 316.973 105.493C318.843 103.82 320.169 101.625 320.78 99.1912C321.204 97.5484 321.263 95.8327 320.952 94.1648C320.771 92.9081 320.485 92.2989 320.542 92.2798Z" fill="#263238"/>
<g opacity="0.3">
<path d="M323.875 139.965C323.875 139.489 323.799 138.927 323.38 138.689C323.248 138.622 323.101 138.587 322.952 138.587C322.803 138.587 322.656 138.622 322.524 138.689C322.257 138.833 322.021 139.027 321.829 139.26C320.709 140.425 319.844 141.809 319.287 143.325L323.952 142.916C323.923 141.954 323.904 140.945 323.875 139.965Z" fill="black"/>
</g>
<g opacity="0.3">
<path d="M339.364 130.15C338.895 127.48 337.725 124.984 335.975 122.915C337.993 129.502 337.317 133.225 336.184 137.737L336.432 137.109C337.736 134.472 339.716 132.815 339.364 130.15Z" fill="black"/>
</g>
<path d="M330.043 351.448L327.197 394.145L308.633 393.926L305.711 349.535L330.043 351.448Z" fill="#FFBE9D"/>
<path d="M327.721 388.528V389.766C327.721 389.766 348.665 398.181 348.864 402.142L307.272 401.913L307.92 388.081C314.117 390.984 320.6 391.346 327.721 388.528Z" fill="#EB664E"/>
<path d="M312.137 392.517C311.742 392.636 311.404 392.896 311.187 393.246C310.97 393.597 310.888 394.014 310.956 394.421C311.058 394.827 311.313 395.178 311.668 395.4C312.023 395.622 312.451 395.697 312.86 395.611C313.284 395.484 313.645 395.205 313.874 394.826C314.103 394.448 314.183 393.998 314.098 393.564C313.947 393.153 313.642 392.817 313.247 392.627C312.853 392.437 312.4 392.407 311.984 392.546" fill="white"/>
<path d="M307.272 401.913L307.425 398.591L347.256 400.038C347.256 400.038 349.102 400.856 348.883 402.151L307.272 401.913Z" fill="#263238"/>
<path d="M327.873 389.88C327.873 390.08 326.844 390.166 325.845 390.832C324.845 391.498 324.303 392.327 324.122 392.25C323.941 392.174 324.245 390.994 325.474 390.232C326.702 389.471 327.92 389.661 327.873 389.88Z" fill="#263238"/>
<path d="M332.223 391.708C332.271 391.908 331.386 392.241 330.691 393.098C329.996 393.955 329.796 394.859 329.586 394.85C329.377 394.84 329.263 393.688 330.148 392.65C331.033 391.613 332.214 391.565 332.223 391.708Z" fill="#263238"/>
<path d="M334.67 396.944C334.479 396.944 334.203 395.992 334.737 394.859C335.27 393.726 336.212 393.317 336.298 393.478C336.383 393.64 335.793 394.24 335.346 395.163C334.898 396.087 334.879 396.925 334.67 396.944Z" fill="#263238"/>
<path d="M326.655 39.1877C327.73 36.5221 326.426 33.2949 324.113 31.5718C321.675 29.9668 318.702 29.3887 315.84 29.9629C313.017 30.5549 310.283 31.5151 307.71 32.8189C306.514 31.6121 305.005 30.7617 303.353 30.3625C301.701 29.9634 299.971 30.0313 298.356 30.5586C296.74 31.0859 295.303 32.0519 294.205 33.3488C293.106 34.6456 292.39 36.2222 292.136 37.9025C291.106 37.6434 290.026 37.6695 289.01 37.9779C287.995 38.2863 287.082 38.8655 286.371 39.6532C285.66 40.4409 285.176 41.4075 284.972 42.4491C284.769 43.4908 284.853 44.5683 285.215 45.566L298.086 50.0879L312.137 74.8395C314.214 76.6112 316.864 77.5669 319.593 77.5282C322.323 77.4895 324.945 76.4591 326.971 74.6293C328.996 72.7995 330.287 70.2952 330.602 67.5838C330.917 64.8723 330.235 62.1388 328.682 59.8933C329.47 59.1932 330.138 58.3702 330.663 57.4563C331.785 56.7923 332.765 55.9117 333.545 54.8657C334.324 53.8198 334.888 52.6293 335.204 51.3635C336.451 45.8516 332.186 39.835 326.655 39.1877Z" fill="#263238"/>
<path d="M318.134 90.7377C317.335 86.7108 316.783 83.95 316.792 83.9786C316.802 84.0072 324.408 81.0275 323.856 70.4319C323.589 65.1579 321.581 56.847 319.715 50.107C318.039 44.0333 312.375 37.3409 306.387 39.2734L288.232 48.1268C286.414 48.7171 286.1 50.4306 286.528 52.287V53.239L293.583 82.4269L296.562 95.4691C297.197 98.1471 298.812 100.49 301.089 102.037C303.365 103.584 306.138 104.223 308.862 103.828C310.35 103.618 311.779 103.107 313.062 102.326C314.344 101.544 315.454 100.509 316.322 99.2832C317.191 98.0574 317.799 96.6671 318.111 95.1976C318.422 93.7281 318.43 92.2104 318.134 90.7377Z" fill="#FFBE9D"/>
<path d="M319.648 57.1517C319.724 57.4895 319.668 57.8437 319.491 58.1413C319.314 58.4389 319.029 58.6571 318.696 58.751C318.528 58.798 318.352 58.8105 318.179 58.7877C318.006 58.7648 317.839 58.7072 317.689 58.6183C317.538 58.5294 317.408 58.4109 317.304 58.2701C317.201 58.1293 317.127 57.9691 317.087 57.7991C317.011 57.4625 317.068 57.1096 317.245 56.8135C317.422 56.5175 317.707 56.3011 318.039 56.2092C318.207 56.1607 318.382 56.1469 318.556 56.1685C318.729 56.19 318.896 56.2467 319.046 56.3348C319.197 56.423 319.328 56.5409 319.431 56.6813C319.535 56.8218 319.608 56.9818 319.648 57.1517Z" fill="#263238"/>
<path d="M318.819 55.1239C318.686 55.3334 317.534 54.8098 316.125 55.1239C314.716 55.4381 313.822 56.352 313.631 56.2092C313.441 56.0664 313.631 55.7998 314.021 55.381C314.545 54.8275 315.227 54.4486 315.973 54.2957C316.709 54.1369 317.478 54.2204 318.163 54.5337C318.696 54.7527 318.877 55.0382 318.819 55.1239Z" fill="#263238"/>
<path d="M305.825 60.2742C305.901 60.6107 305.845 60.9637 305.667 61.2597C305.49 61.5557 305.206 61.7721 304.873 61.864C304.709 61.9118 304.536 61.9266 304.366 61.9074C304.196 61.8883 304.032 61.8356 303.882 61.7523C303.732 61.6691 303.601 61.557 303.495 61.4226C303.389 61.2881 303.31 61.134 303.264 60.9691C303.188 60.6313 303.244 60.2771 303.421 59.9795C303.598 59.6819 303.883 59.4637 304.216 59.3698C304.381 59.3221 304.554 59.3077 304.725 59.3275C304.895 59.3473 305.06 59.4008 305.21 59.485C305.36 59.5691 305.491 59.6823 305.597 59.8178C305.702 59.9532 305.78 60.1084 305.825 60.2742Z" fill="#263238"/>
<path d="M305.13 58.4845C305.006 58.6939 303.845 58.1608 302.436 58.4845C301.027 58.8081 300.132 59.703 299.942 59.5697C299.751 59.4364 299.942 59.1604 300.332 58.732C300.858 58.1835 301.539 57.8082 302.284 57.6562C303.019 57.4998 303.786 57.5798 304.473 57.8847C304.978 58.1132 305.197 58.3702 305.13 58.4845Z" fill="#263238"/>
<path d="M312.298 67.433C312.996 67.048 313.738 66.7476 314.507 66.5381C314.859 66.4239 315.192 66.2811 315.202 66.0241C315.152 65.6454 314.99 65.2905 314.735 65.0054L313.089 62.4732C310.785 58.8651 309.033 55.8759 309.176 55.8093C309.319 55.7426 311.308 58.57 313.612 62.178L315.221 64.7294C315.537 65.1198 315.709 65.6074 315.706 66.1097C315.678 66.2467 315.62 66.3757 315.536 66.4876C315.452 66.5995 315.344 66.6915 315.221 66.7571C315.035 66.8557 314.836 66.9293 314.631 66.9761C313.878 67.2339 313.093 67.3876 312.298 67.433Z" fill="#263238"/>
<path d="M316.792 83.9786C311.977 85.0669 306.954 84.7967 302.283 83.198C302.283 83.198 307.272 89.7096 317.334 86.5966L316.792 83.9786Z" fill="#EB996E"/>
<path d="M305.368 56.4663C305.273 56.8756 303.817 56.8661 302.16 57.2754C300.504 57.6848 299.19 58.3036 298.923 57.9799C298.809 57.8276 299 57.4278 299.504 57.0279C300.175 56.4632 300.971 56.0681 301.827 55.876C302.675 55.6748 303.559 55.6748 304.407 55.876C305.083 55.9998 305.435 56.2759 305.368 56.4663Z" fill="#263238"/>
<path d="M318.277 50.6306C318.048 51.0114 316.83 50.9162 315.421 51.1923C314.012 51.4683 312.898 51.9443 312.565 51.6683C312.413 51.5255 312.565 51.1637 312.974 50.7163C313.603 50.1876 314.363 49.8389 315.173 49.7072C315.971 49.5465 316.797 49.6058 317.563 49.8785C318.144 50.1451 318.372 50.4402 318.277 50.6306Z" fill="#263238"/>
<path d="M292.716 41.3106C292.927 42.3419 293.362 43.3141 293.991 44.1582C294.619 45.0023 295.426 45.6976 296.354 46.1947C297.282 46.6918 298.308 46.9784 299.359 47.0343C300.41 47.0901 301.46 46.9139 302.436 46.518C303.94 45.9087 305.501 44.7663 307.024 45.3184C308.547 45.8706 309.176 48.0411 310.632 48.8503C312.774 50.0498 315.392 47.9745 317.782 48.1839C319.686 48.3458 321.123 49.8023 322.599 51.0399C324.074 52.2775 326.112 53.2104 327.778 52.3155C327.396 50.7257 326.831 49.1858 326.093 47.727C325.348 46.2583 324.116 45.0939 322.608 44.4331C321.771 44.0999 320.866 43.9857 320.067 43.5763C318.343 42.7005 317.572 40.7204 316.325 39.2257C315.506 38.2839 314.474 37.5508 313.316 37.0872C312.157 36.6237 310.904 36.443 309.661 36.5602C307.605 36.7696 305.653 37.8073 303.578 37.7216C302.045 37.655 300.579 36.9695 299.047 36.9981C296.067 36.9981 293.83 39.6637 292.173 42.1483" fill="#263238"/>
<path d="M302.75 43.4906C301.379 43.3859 298.58 43.1003 297.657 42.1293C296.718 41.08 295.521 40.2956 294.185 39.8545C292.848 39.4134 291.419 39.3312 290.041 39.616C288.673 40.0238 287.472 40.8599 286.615 42.0013C285.758 43.1427 285.291 44.529 285.281 45.9562C283.615 46.3627 282.09 47.2115 280.867 48.4129C279.644 49.6144 278.768 51.1239 278.331 52.782C277.888 54.5178 277.873 56.3352 278.288 58.0781C278.702 59.8209 279.534 61.437 280.711 62.7873C281.283 63.5024 281.805 64.2563 282.272 65.0436C281.627 65.8443 281.06 66.705 280.578 67.6139C278.398 72.431 284.31 74.2778 284.31 74.2778C284.31 77.5146 287.309 77.4955 289.222 77.486C291.135 77.4765 292.192 82.5886 293.687 82.3887L292.173 66.6143C292.395 66.7005 292.63 66.7457 292.868 66.7476C296.476 66.8142 295.534 59.979 294.372 58.1797C295.447 56.8416 296.355 55.3774 297.076 53.8196C297.729 51.4383 297.775 48.9311 297.209 46.5274C298.418 46.3751 303.34 43.5287 302.75 43.4906Z" fill="#263238"/>
<path d="M292.65 67.4522C292.527 66.9509 292.279 66.489 291.929 66.1094C291.579 65.7299 291.139 65.4451 290.65 65.2816C290.16 65.1181 289.637 65.0813 289.13 65.1745C288.622 65.2677 288.146 65.488 287.747 65.8147C286.795 66.6334 286.29 68.0043 286.861 70.2986C288.404 76.4294 294.239 73.621 294.201 73.4497C294.163 73.2783 293.316 69.9844 292.65 67.4522Z" fill="#FFBE9D"/>
<path d="M291.745 71.5932C291.745 71.5932 291.66 71.6979 291.498 71.8217C291.273 71.9943 290.989 72.0728 290.708 72.0406C290.003 71.9645 289.194 71.0886 288.889 69.9748C288.744 69.4544 288.715 68.9085 288.804 68.3755C288.813 68.1685 288.873 67.9668 288.977 67.7878C289.082 67.6088 289.228 67.4577 289.403 67.3473C289.519 67.285 289.653 67.2652 289.781 67.2913C289.91 67.3174 290.026 67.3877 290.108 67.4901C290.232 67.6329 290.222 67.7662 290.26 67.7757C290.298 67.7853 290.365 67.6329 290.26 67.3949C290.187 67.2538 290.07 67.1402 289.927 67.0713C289.725 66.9898 289.5 66.9898 289.299 67.0713C289.06 67.1848 288.853 67.3569 288.698 67.5716C288.543 67.7863 288.445 68.0366 288.413 68.2993C288.29 68.8988 288.313 69.5193 288.48 70.1081C288.586 70.6609 288.853 71.17 289.248 71.5714C289.643 71.9729 290.147 72.2487 290.698 72.3643C290.877 72.3716 291.056 72.3386 291.22 72.2677C291.385 72.1969 291.532 72.09 291.65 71.9549C291.774 71.7455 291.774 71.6027 291.745 71.5932Z" fill="#EB996E"/>
<path d="M325.522 58.8937C325.522 58.8937 326.083 58.4653 326.864 57.5133C327.941 56.1417 328.602 54.4896 328.768 52.7534C328.894 51.5682 328.777 50.3697 328.425 49.2311C328.018 47.9249 327.265 46.7536 326.245 45.842C325.067 44.8135 323.641 44.1108 322.108 43.8036C320.575 43.4963 318.989 43.5952 317.506 44.0904C317.22 44.1856 316.954 44.3284 316.687 44.4426C316.421 44.5568 316.183 44.7282 315.935 44.871L315.554 45.0804V44.6615C315.546 43.9241 315.272 43.2143 314.783 42.6624C314.282 42.1267 313.667 41.7103 312.984 41.4438C311.691 40.905 310.258 40.7982 308.9 41.1392C306.272 41.739 304.045 42.9385 301.941 43.186C300.291 43.4727 298.594 43.1332 297.181 42.234C296.808 41.9775 296.485 41.6548 296.229 41.282C296.077 41.025 296 40.8822 296.019 40.8726C296.364 41.3427 296.786 41.7515 297.267 42.0817C298.656 42.884 300.289 43.1578 301.865 42.8528C302.961 42.6465 304.033 42.3275 305.063 41.9008C306.273 41.4171 307.513 41.0133 308.776 40.6918C309.48 40.5215 310.204 40.4478 310.928 40.4728C311.691 40.5132 312.442 40.6871 313.146 40.9869C313.874 41.2979 314.524 41.766 315.05 42.3577C315.613 43.0022 315.93 43.825 315.945 44.6806L315.564 44.4711L316.354 44.0142C316.649 43.9 316.925 43.7476 317.23 43.6429C318.793 43.1076 320.469 42.9957 322.09 43.3184C323.71 43.6411 325.216 44.387 326.454 45.4803C327.525 46.4495 328.309 47.6943 328.72 49.0788C329.147 50.5461 329.205 52.0963 328.888 53.5912C328.57 55.0861 327.888 56.4793 326.902 57.6466C326.588 58.0044 326.234 58.324 325.845 58.5986C325.75 58.7097 325.641 58.8088 325.522 58.8937Z" fill="#455A64"/>
<path d="M324.284 37.3694C323.659 37.0521 322.992 36.8246 322.304 36.6935C321.517 36.5859 320.715 36.6608 319.962 36.9125C318.986 37.211 318.138 37.8277 317.553 38.6641L317.315 38.9973L317.172 38.6165C316.675 37.4463 315.875 36.4297 314.854 35.6717C313.834 34.9137 312.629 34.4416 311.365 34.304C309.38 34.2294 307.424 34.7969 305.787 35.9224C304.392 36.8315 302.909 37.597 301.36 38.2072C300.292 38.6111 299.142 38.7483 298.009 38.607C297.707 38.5513 297.411 38.4684 297.124 38.3595C296.933 38.2738 296.828 38.2262 296.838 38.2072C296.848 38.1881 297.266 38.3309 298.037 38.4071C299.133 38.4755 300.229 38.2966 301.246 37.8835C302.751 37.2271 304.194 36.437 305.558 35.5226C306.401 34.9994 307.294 34.5625 308.224 34.2183C309.246 33.8455 310.339 33.7057 311.422 33.809C312.773 33.9564 314.058 34.4672 315.14 35.2869C316.223 36.1067 317.064 37.2047 317.572 38.4642H317.201C317.856 37.5696 318.79 36.9195 319.857 36.6174C320.667 36.3824 321.522 36.34 322.351 36.4936C322.876 36.5933 323.38 36.7868 323.836 37.0648C323.999 37.1445 324.15 37.2471 324.284 37.3694Z" fill="#455A64"/>
<path d="M311.746 70.251C311.524 70.0651 311.265 69.9282 310.986 69.8495C310.707 69.7707 310.415 69.7518 310.128 69.794C309.793 69.8656 309.476 70.0068 309.199 70.2085C308.922 70.4103 308.69 70.668 308.519 70.965C308.519 70.965 308.472 71.0126 308.462 71.0411C308.331 71.2585 308.271 71.5115 308.291 71.7646C308.332 72.0404 308.441 72.3018 308.607 72.5258C308.773 72.7499 308.991 72.9298 309.243 73.0498C309.645 73.2538 310.101 73.3285 310.547 73.2638C310.994 73.199 311.409 72.998 311.737 72.6881C312.048 72.3592 312.222 71.9241 312.224 71.4714C312.226 71.0187 312.055 70.5822 311.746 70.251Z" fill="#EB664E"/>
<path d="M312.222 73.2115C312.146 73.2115 312.06 72.926 311.803 72.5356C311.494 72.0124 311.031 71.5967 310.478 71.3447C309.924 71.0928 309.307 71.0167 308.709 71.1267C308.243 71.1933 307.957 71.3266 307.928 71.26C307.9 71.1933 308.119 70.9649 308.633 70.784C309.306 70.5675 310.035 70.6082 310.68 70.8982C311.33 71.1878 311.845 71.716 312.117 72.3738C312.317 72.8688 312.289 73.202 312.222 73.2115Z" fill="#263238"/>
<path d="M292.792 74.3921C292.792 74.3921 293.068 74.8681 292.707 75.5916C292.502 76.0246 292.142 76.3645 291.698 76.5436C291.42 76.6428 291.124 76.6764 290.832 76.6417C290.539 76.607 290.259 76.505 290.013 76.3437C289.762 76.1914 289.55 75.9833 289.393 75.7356C289.236 75.4879 289.139 75.2073 289.108 74.9157C289.079 74.4455 289.218 73.9802 289.499 73.602C289.994 72.9737 290.546 72.9546 290.546 73.0117C290.546 73.0689 290.127 73.2307 289.794 73.8019C289.601 74.1219 289.52 74.4972 289.565 74.8681C289.601 75.0854 289.683 75.2924 289.806 75.4748C289.929 75.6572 290.091 75.8107 290.279 75.9248C290.465 76.0437 290.674 76.1221 290.892 76.1549C291.11 76.1877 291.333 76.1742 291.545 76.1152C291.897 75.9894 292.2 75.7563 292.412 75.4488C292.783 74.8586 292.716 74.3921 292.792 74.3921Z" fill="#EB664E"/>
<path d="M289.584 74.0208C289.632 74.0208 289.584 74.3445 289.137 74.5539C288.917 74.6453 288.676 74.6718 288.441 74.6303C288.207 74.5889 287.989 74.4812 287.814 74.3201C287.639 74.1589 287.513 73.9509 287.452 73.7208C287.392 73.4906 287.398 73.2479 287.471 73.0212C287.564 72.7638 287.742 72.5456 287.975 72.4024C288.366 72.1644 288.661 72.2596 288.651 72.3168C288.642 72.3739 288.423 72.4405 288.185 72.6785C288.068 72.8248 287.996 73.0024 287.98 73.1891C287.963 73.3758 288.002 73.5632 288.091 73.7279C288.181 73.8925 288.317 74.0272 288.483 74.1148C288.648 74.2025 288.836 74.2393 289.022 74.2207C289.346 74.1541 289.518 73.9827 289.584 74.0208Z" fill="#EB664E"/>
<path d="M300.046 158.567C300.046 158.567 323.617 159.938 337.554 160.061C348.34 160.166 353.157 157.301 355.309 150.361C357.118 144.544 353.234 133.377 353.234 133.377C345.932 133.377 341.429 134.424 336.736 136.623L337.983 141.726L299.979 145.001L300.046 158.567Z" fill="#FFBE9D"/>
<path d="M345.903 147.171C344.881 145.842 343.687 144.655 342.352 143.639C340.921 142.763 339.377 142.085 337.764 141.621C338.272 141.548 338.79 141.594 339.278 141.755C340.475 142.038 341.611 142.538 342.629 143.23C343.648 143.925 344.529 144.803 345.227 145.819C345.761 146.6 345.96 147.143 345.903 147.171Z" fill="#EB996E"/>
<path d="M291.421 136.585C291.421 136.585 284.129 138.337 278.769 141.916L284.481 157.396C286.385 162.479 292.202 165.012 296.857 162.346C304.025 158.243 306.558 146.286 306.558 146.286L314.431 112.129L301.379 103.951L291.469 136.585" fill="#FFBE9D"/>
<path d="M301.332 103.951L301.865 92.7178L298.942 81.2939C298.78 80.6656 298.704 79.8755 299.218 79.4947C299.473 79.2992 299.788 79.1981 300.109 79.2085C300.43 79.2189 300.738 79.3402 300.979 79.5518C301.77 80.3705 305.578 90.3569 305.578 90.3569C305.578 90.3569 311.356 86.8916 312.384 86.7203C313.412 86.5489 314.698 89.6619 314.783 89.8999C314.821 90.5975 314.821 91.2967 314.783 91.9943C314.783 91.9943 318.353 92.099 318.677 92.5845C318.936 93.5763 319.074 94.5962 319.086 95.6213C319.086 95.6213 320.6 96.1068 320.838 97.2492C321.076 98.3916 321.571 100.277 320.838 100.695C320.105 101.114 318.62 101.933 318.62 101.933C318.62 101.933 318.02 107.759 317.858 108.292C317.696 108.825 314.355 112.1 314.355 112.1L301.332 103.951Z" fill="#FFBE9D"/>
<path d="M289.184 162.574C289.184 162.574 289.537 162.784 290.279 163.022C291.365 163.363 292.514 163.454 293.64 163.288C295.449 163.03 297.143 162.25 298.514 161.042C300.326 159.398 301.857 157.468 303.045 155.33C303.745 154.073 304.335 152.757 304.806 151.398C305.302 149.903 305.712 148.38 306.034 146.838C306.777 143.63 307.586 140.174 308.443 136.5C310.157 129.16 312.08 120.954 314.155 112.11V112.043H314.202C314.859 111.396 315.516 110.739 316.173 110.053C316.497 109.711 316.82 109.368 317.125 109.016C317.277 108.835 317.439 108.654 317.563 108.473C317.659 108.294 317.715 108.096 317.725 107.892C317.982 105.988 318.182 104.018 318.391 102.028V101.904L318.505 101.847L320.324 100.829C320.457 100.743 320.666 100.648 320.752 100.572C320.843 100.489 320.904 100.379 320.924 100.257C320.968 99.9417 320.968 99.6213 320.924 99.3055C320.831 98.6074 320.688 97.9169 320.495 97.2397C320.171 96.6475 319.628 96.2064 318.981 96.0116L318.82 95.9545V95.7927C318.82 95.2405 318.763 94.6693 318.696 94.1076C318.67 93.8263 318.629 93.5467 318.572 93.2699C318.55 93.1479 318.511 93.0295 318.458 92.9177C318.458 92.851 318.458 92.9177 318.401 92.8606C318.349 92.8334 318.295 92.8111 318.239 92.7939C317.094 92.5444 315.926 92.4136 314.755 92.4036H314.507V92.1561C314.507 91.5659 314.507 90.909 314.507 90.2521C314.468 90.0281 314.391 89.8124 314.279 89.6143C314.183 89.3858 314.069 89.1669 313.955 88.9384C313.732 88.4974 313.471 88.0769 313.174 87.6817C313.04 87.4976 312.876 87.3368 312.689 87.2058C312.62 87.1474 312.535 87.1108 312.445 87.1007C312.355 87.0905 312.265 87.1072 312.184 87.1486C311.724 87.3251 311.275 87.5318 310.842 87.7674C309.071 88.7194 307.339 89.6714 305.644 90.6996L305.397 90.8519L305.292 90.5853C304.397 88.3291 303.502 86.1015 302.626 83.9214C302.188 82.8266 301.76 81.7318 301.322 80.6561C301.255 80.4151 301.121 80.198 300.935 80.0296C300.75 79.8613 300.521 79.7485 300.275 79.7041C300.047 79.6286 299.801 79.6327 299.576 79.7157C299.351 79.7988 299.161 79.9558 299.037 80.1611C298.919 80.3653 298.869 80.6022 298.895 80.837C298.895 81.0464 299.028 81.3701 299.085 81.6271C299.237 82.1793 299.38 82.7219 299.523 83.2645C299.808 84.3593 300.085 85.4351 300.37 86.5013C300.929 88.6464 301.478 90.7408 302.017 92.7844V92.851C301.827 96.7605 301.646 100.505 301.474 104.084V104.065L292.802 132.282L290.355 140.136C290.07 141.022 289.851 141.716 289.698 142.202C289.546 142.687 289.451 142.897 289.451 142.897C289.451 142.897 289.498 142.649 289.632 142.183L290.232 140.098C290.784 138.261 291.574 135.605 292.573 132.216C294.63 125.399 297.552 115.67 301.084 103.942V103.989C301.249 100.422 301.417 96.678 301.589 92.7558V92.8225C301.046 90.7757 300.484 88.6813 299.923 86.5489L299.066 83.3121C298.923 82.7695 298.78 82.2174 298.628 81.6747C298.546 81.3897 298.479 81.1005 298.428 80.8084C298.393 80.478 298.463 80.1448 298.628 79.8564C298.804 79.5595 299.076 79.3312 299.399 79.2091C299.719 79.1156 300.057 79.105 300.382 79.1783C300.706 79.2515 301.007 79.4063 301.255 79.628C301.494 79.8521 301.672 80.1341 301.77 80.4467L303.074 83.712C303.959 85.9015 304.844 88.1292 305.749 90.3759L305.397 90.2521C307.101 89.243 308.814 88.2339 310.623 87.2914C311.08 87.0525 311.551 86.8395 312.032 86.6536C312.182 86.5911 312.346 86.5681 312.508 86.587C312.671 86.6105 312.827 86.669 312.965 86.7583C313.194 86.9228 313.397 87.1219 313.565 87.3486C313.883 87.7651 314.16 88.2115 314.393 88.6813C314.517 88.9193 314.631 89.1478 314.736 89.3858C314.871 89.6379 314.961 89.9117 315.002 90.195C315.002 90.8709 315.002 91.4992 315.002 92.099L314.764 91.8419C315.988 91.8501 317.207 91.9906 318.401 92.2608C318.483 92.2894 318.562 92.3244 318.639 92.3655C318.743 92.4225 318.829 92.5084 318.886 92.613C318.96 92.7675 319.014 92.9306 319.048 93.0985C319.105 93.4032 319.143 93.6888 319.181 93.9839C319.239 94.5646 319.277 95.1358 319.305 95.707L319.134 95.4785C319.523 95.5927 319.885 95.785 320.198 96.0436C320.51 96.3022 320.767 96.6217 320.952 96.9827C321.161 97.7061 321.313 98.4445 321.409 99.1913C321.475 99.5724 321.475 99.962 321.409 100.343C321.368 100.574 321.246 100.783 321.066 100.933C320.91 101.038 320.748 101.133 320.581 101.219L318.772 102.161L318.896 101.981C318.677 103.97 318.477 105.922 318.21 107.854L318.153 108.226C318.131 108.376 318.069 108.517 317.972 108.635C317.832 108.843 317.676 109.041 317.506 109.225C317.182 109.587 316.859 109.939 316.554 110.282C315.897 110.967 315.24 111.624 314.574 112.272L314.64 112.157C312.546 120.992 310.604 129.198 308.862 136.538C307.996 140.203 307.167 143.659 306.406 146.857C306.08 148.411 305.66 149.943 305.149 151.446C304.659 152.818 304.054 154.146 303.34 155.416C302.124 157.581 300.558 159.531 298.704 161.185C297.292 162.4 295.554 163.175 293.706 163.412C292.556 163.567 291.385 163.449 290.289 163.069C290.01 162.967 289.739 162.843 289.479 162.698L289.184 162.574Z" fill="#EB996E"/>
<path d="M314.793 92.0228C314.793 92.0894 314.469 92.1275 313.965 92.1465C313.324 92.1587 312.686 92.2353 312.061 92.375C311.457 92.5234 310.901 92.8213 310.443 93.2413C310.1 93.565 309.947 93.841 309.871 93.8125C309.795 93.7839 309.871 93.4412 310.185 93.0033C310.629 92.449 311.246 92.06 311.937 91.899C312.604 91.7348 313.296 91.7024 313.974 91.8038C314.488 91.8704 314.793 91.9561 314.793 92.0228Z" fill="#EB996E"/>
<path d="M312.032 92.1276C311.908 92.08 311.899 91.7849 312.032 91.4707C312.165 91.1566 312.356 90.9376 312.479 90.9852C312.603 91.0328 312.622 91.3279 312.479 91.6421C312.337 91.9562 312.127 92.1752 312.032 92.1276Z" fill="#EB996E"/>
<path d="M319.248 95.5834C318.324 95.8693 317.359 96.0011 316.392 95.9737C316.087 95.9635 315.785 96.0265 315.51 96.1574C315.235 96.2882 314.996 96.4831 314.811 96.7257C314.564 97.116 314.65 97.4397 314.573 97.4588C314.497 97.4778 314.269 97.1446 314.507 96.5734C314.638 96.2518 314.877 95.9859 315.183 95.8213C315.535 95.628 315.924 95.5112 316.325 95.4786C317.297 95.3298 318.289 95.3653 319.248 95.5834Z" fill="#EB996E"/>
<path d="M318.62 99.0104C318.753 99.0104 318.829 99.7148 318.791 100.581C318.753 101.447 318.61 102.133 318.477 102.133C318.344 102.133 318.258 101.419 318.296 100.553C318.334 99.6863 318.477 99.0008 318.62 99.0104Z" fill="#EB996E"/>
<path d="M322.571 124.647L323.418 121.734C323.457 121.601 323.529 121.48 323.629 121.383C323.729 121.287 323.852 121.218 323.987 121.183C324.121 121.148 324.262 121.149 324.396 121.186C324.53 121.223 324.652 121.293 324.751 121.392L325.864 122.524L326.55 119.773C326.59 119.614 326.678 119.472 326.803 119.364C326.927 119.257 327.081 119.191 327.244 119.174C327.407 119.158 327.571 119.192 327.715 119.271C327.858 119.351 327.973 119.473 328.044 119.621L329.596 122.877L322.571 124.647Z" fill="white"/>
<path d="M329.615 124.124C328.55 124.639 327.419 125.004 326.254 125.209C325.128 125.577 323.955 125.782 322.77 125.818C324.962 124.938 327.266 124.368 329.615 124.124Z" fill="white"/>
<path d="M273 107.873C273 107.873 272.648 108.235 272.153 109.006C271.488 110.104 271.051 111.325 270.868 112.595C270.596 114.487 270.539 116.403 270.696 118.307C270.801 120.468 270.972 122.829 271.239 125.304C271.69 129.531 272.36 133.732 273.248 137.89C273.581 139.489 273.885 140.746 274.095 141.697C274.19 142.097 274.276 142.431 274.342 142.716C274.409 143.002 274.419 143.078 274.419 143.078C274.419 143.078 274.371 142.964 274.304 142.735C274.238 142.507 274.133 142.107 274.028 141.717C273.79 140.831 273.467 139.556 273.076 137.956C272.151 133.8 271.461 129.595 271.01 125.361C270.744 122.886 270.582 120.516 270.487 118.355C270.343 116.449 270.413 114.533 270.696 112.643C270.901 111.356 271.367 110.125 272.067 109.025C272.325 108.601 272.639 108.214 273 107.873Z" fill="white"/>
<path d="M293.04 94.9073L292.821 95.0216L292.193 95.3262C291.65 95.5832 290.86 95.964 289.918 96.4876C287.461 97.8579 285.074 99.3512 282.768 100.962C280.045 102.866 277.637 104.599 275.876 105.855L273.791 107.331L273.21 107.721C273.145 107.773 273.075 107.818 273.001 107.854C273.055 107.79 273.119 107.736 273.191 107.692L273.743 107.274L275.79 105.741C277.532 104.456 279.931 102.666 282.654 100.8C284.964 99.1825 287.368 97.7012 289.851 96.3639C290.803 95.8593 291.603 95.4976 292.164 95.2596L292.802 94.993C292.992 94.9264 292.992 94.8978 293.04 94.9073Z" fill="white"/>
<path d="M338.44 101.105C338.38 101.072 338.325 101.03 338.278 100.981L337.849 100.61C337.319 100.162 336.763 99.7455 336.183 99.3627C334.251 98.1305 332.2 97.0941 330.062 96.2688C327.931 95.4244 325.753 94.6998 323.541 94.0982C322.684 93.8602 321.999 93.6889 321.513 93.5746L320.971 93.4318C320.905 93.4182 320.841 93.3958 320.78 93.3652H320.98L321.532 93.4699C322.018 93.5651 322.713 93.7174 323.57 93.9364C325.803 94.5002 327.997 95.2094 330.138 96.0593C332.289 96.8844 334.342 97.9444 336.26 99.2199C337.058 99.7604 337.79 100.393 338.44 101.105Z" fill="white"/>
<path d="M293.306 173.77C293.177 173.747 293.052 173.705 292.935 173.646C292.604 173.501 292.286 173.329 291.983 173.132C291.47 172.825 291.023 172.419 290.667 171.939C290.311 171.459 290.053 170.913 289.908 170.333C289.646 169.162 289.777 167.938 290.279 166.849C290.424 166.51 290.609 166.191 290.831 165.897C290.983 165.697 291.088 165.602 291.098 165.611C290.838 166.017 290.606 166.44 290.403 166.877C289.96 167.947 289.857 169.127 290.108 170.257C290.38 171.373 291.059 172.347 292.012 172.989C292.802 173.56 293.325 173.732 293.306 173.77Z" fill="white"/>
<path d="M290.279 163.46C290.482 163.838 290.632 164.241 290.727 164.659C290.876 165.06 290.965 165.48 290.993 165.906C290.777 165.537 290.623 165.135 290.536 164.716C290.38 164.315 290.293 163.89 290.279 163.46Z" fill="white"/>
<path d="M303.15 376.905L332.186 376.762L331.662 276.375L331.386 174.255L292.041 173.751L284.967 187.079C282.073 192.437 280.228 198.298 279.531 204.348C279.055 208.974 282.521 224.016 283.72 227.824L294.544 262.152L303.15 376.905Z" fill="#263238"/>
<path d="M339.906 174.379L371.817 261.362C373.707 266.966 374.335 272.92 373.655 278.795C372.976 284.671 371.005 290.323 367.885 295.348L330.834 367.699L310.004 341.633L341.001 276.898L313.679 232.584L318.277 174.512L331.148 174.303L339.906 174.379Z" fill="#263238"/>
<path d="M328.739 203.519C328.739 203.519 328.739 203.672 328.739 203.967C328.739 204.262 328.787 204.719 328.825 205.28C328.892 206.451 328.977 208.136 329.092 210.316C329.31 214.724 329.615 221.055 330.044 228.871C330.472 236.686 330.834 246.006 331.31 256.383C331.538 261.562 331.786 266.998 332.033 272.633C332.214 275.489 332.138 278.345 332.166 281.201C332.195 284.057 332.166 287.066 332.166 290.055C332.166 313.978 332.243 335.636 332.271 351.334C332.271 359.159 332.271 365.5 332.271 369.907C332.271 372.087 332.271 373.782 332.271 374.962C332.271 375.515 332.271 375.914 332.271 376.276C332.271 376.638 332.271 376.724 332.271 376.724C332.271 376.724 332.271 376.571 332.271 376.276V374.962C332.271 373.782 332.271 372.106 332.214 369.907C332.214 365.5 332.138 359.169 332.081 351.344C332.014 335.645 331.928 313.988 331.833 290.064C331.833 287.075 331.833 284.124 331.833 281.211C331.833 278.298 331.89 275.423 331.709 272.643C331.471 267.017 331.233 261.581 331.015 256.402C330.577 246.044 330.177 236.725 329.853 228.88C329.529 221.036 329.291 214.734 329.111 210.326C329.034 208.155 328.977 206.461 328.939 205.28C328.939 204.719 328.939 204.329 328.939 203.967C328.939 203.605 328.739 203.519 328.739 203.519Z" fill="#455A64"/>
<path d="M328.006 176.093C328.117 176.399 328.185 176.72 328.206 177.045C328.311 177.654 328.425 178.539 328.558 179.644C328.806 181.843 329.072 184.899 329.225 188.278C329.377 191.658 329.387 194.723 329.339 196.941C329.339 198.045 329.272 198.95 329.225 199.569C329.234 199.89 329.196 200.211 329.11 200.521C328.991 199.332 328.949 198.136 328.987 196.941C328.987 194.723 328.882 191.677 328.73 188.297C328.577 184.918 328.368 181.881 328.206 179.729C328.071 178.522 328.004 177.308 328.006 176.093Z" fill="#455A64"/>
<path d="M321.609 178.054C321.656 178.12 321.114 178.368 320.961 179.139C320.919 179.348 320.93 179.565 320.995 179.768C321.06 179.972 321.177 180.155 321.333 180.3C321.521 180.476 321.756 180.593 322.009 180.639C322.262 180.684 322.523 180.656 322.761 180.558C322.989 180.44 323.179 180.261 323.311 180.04C323.442 179.82 323.509 179.567 323.503 179.31C323.494 179.097 323.431 178.89 323.32 178.708C323.208 178.527 323.052 178.377 322.865 178.273C322.478 178.085 322.046 178.009 321.618 178.054C321.618 178.054 321.713 177.93 321.961 177.854C322.318 177.767 322.694 177.804 323.027 177.959C323.293 178.069 323.523 178.251 323.691 178.485C323.859 178.719 323.959 178.995 323.979 179.282C324.017 179.636 323.943 179.994 323.767 180.304C323.591 180.614 323.322 180.861 322.998 181.01C322.674 181.159 322.312 181.203 321.962 181.136C321.612 181.068 321.292 180.893 321.047 180.634C320.845 180.432 320.701 180.18 320.633 179.903C320.564 179.626 320.572 179.335 320.657 179.063C320.752 178.707 320.968 178.394 321.266 178.178C321.456 178.044 321.599 178.025 321.609 178.054Z" fill="#455A64"/>
<path d="M306.377 176.331C306.517 176.631 306.604 176.953 306.634 177.283C306.787 178.137 306.816 179.009 306.72 179.872C306.583 181.157 306.212 182.405 305.625 183.556C304.916 184.988 303.867 186.224 302.568 187.155C301.27 188.086 299.764 188.684 298.18 188.897C296.913 189.086 295.622 189.038 294.373 188.754C293.527 188.571 292.713 188.266 291.954 187.85C291.668 187.714 291.404 187.534 291.174 187.317C292.226 187.79 293.323 188.157 294.449 188.411C295.803 188.693 297.2 188.691 298.553 188.405C299.906 188.119 301.186 187.556 302.31 186.751C303.435 185.946 304.38 184.916 305.086 183.727C305.793 182.538 306.245 181.216 306.415 179.844C306.527 178.675 306.514 177.497 306.377 176.331Z" fill="#455A64"/>
<path d="M343.733 184.67C343.112 184.742 342.483 184.667 341.896 184.451C340.458 183.998 339.166 183.17 338.155 182.052C337.134 180.939 336.433 179.571 336.127 178.092C335.977 177.489 335.977 176.858 336.127 176.255C336.213 176.255 336.222 176.949 336.508 178.016C336.893 179.393 337.595 180.662 338.557 181.722C339.519 182.781 340.714 183.601 342.048 184.118C343.038 184.508 343.743 184.575 343.733 184.67Z" fill="#455A64"/>
<path d="M355.071 278.441C354.594 278.985 354.023 279.439 353.386 279.783C352.717 280.207 351.989 280.528 351.225 280.735C350.263 280.99 349.249 280.963 348.302 280.659C346.639 280.032 345.215 278.9 344.228 277.422C343.774 276.867 343.4 276.252 343.114 275.594C343.628 276.085 344.093 276.623 344.504 277.203C345.515 278.543 346.88 279.575 348.445 280.183C349.244 280.396 350.078 280.444 350.896 280.325C351.715 280.205 352.5 279.921 353.205 279.488C353.806 279.103 354.429 278.754 355.071 278.441Z" fill="#455A64"/>
<path d="M347.798 283.991C346.673 282.825 345.668 281.55 344.799 280.183C343.798 278.91 342.924 277.542 342.191 276.099C343.323 277.26 344.332 278.536 345.199 279.907C346.208 281.172 347.079 282.541 347.798 283.991Z" fill="#455A64"/>
<path d="M299.018 206.88C298.884 206.928 298.551 206.385 298.256 205.652C297.961 204.919 297.837 204.3 297.961 204.243C298.085 204.186 298.427 204.738 298.713 205.471C298.999 206.204 299.141 206.88 299.018 206.88Z" fill="#FAFAFA"/>
<path d="M317.448 209.527C317.306 209.527 317.201 209.06 317.201 208.479C317.201 207.899 317.306 207.423 317.448 207.423C317.591 207.423 317.696 207.899 317.696 208.479C317.696 209.06 317.582 209.527 317.448 209.527Z" fill="#FAFAFA"/>
<path d="M309.871 219.541C309.738 219.541 309.585 218.97 309.538 218.237C309.49 217.504 309.538 216.914 309.69 216.904C309.842 216.895 309.985 217.475 310.033 218.208C310.08 218.941 310.004 219.532 309.871 219.541Z" fill="#FAFAFA"/>
<path d="M296.029 226.872C295.914 226.957 295.524 226.605 295.01 226.243C294.496 225.882 294.058 225.605 294.058 225.472C294.058 225.339 294.686 225.415 295.267 225.834C295.848 226.253 296.143 226.872 296.029 226.872Z" fill="#FAFAFA"/>
<path d="M320.429 236.21C320.314 236.134 320.429 235.725 320.752 235.259C321.076 234.792 321.371 234.525 321.485 234.602C321.6 234.678 321.485 235.097 321.162 235.554C320.838 236.011 320.543 236.287 320.429 236.21Z" fill="#FAFAFA"/>
<path d="M305.368 238.848C305.235 238.848 305.12 238.057 305.12 237.096C305.12 236.134 305.235 235.335 305.368 235.335C305.501 235.335 305.615 236.125 305.615 237.096C305.615 238.067 305.473 238.848 305.368 238.848Z" fill="#FAFAFA"/>
<path d="M300.437 249.529C300.36 249.633 299.865 249.415 299.332 249.024C298.799 248.634 298.38 248.234 298.504 248.12C298.628 248.006 299.085 248.234 299.618 248.624C300.151 249.015 300.522 249.415 300.437 249.529Z" fill="#FAFAFA"/>
<path d="M315.687 253.242C315.744 253.365 315.44 253.622 315.002 253.822C314.564 254.022 314.164 254.07 314.107 253.946C314.05 253.822 314.364 253.565 314.802 253.365C315.24 253.165 315.64 253.118 315.687 253.242Z" fill="#FAFAFA"/>
<path d="M305.368 270.663C305.254 270.72 304.758 269.987 304.273 269.016C303.787 268.045 303.492 267.207 303.616 267.112C303.74 267.017 304.235 267.788 304.711 268.759C305.187 269.73 305.453 270.558 305.368 270.663Z" fill="#FAFAFA"/>
<path d="M322.189 269.045C322.065 268.978 322.284 268.34 322.665 267.607C323.046 266.874 323.474 266.341 323.617 266.408C323.76 266.474 323.522 267.112 323.132 267.845C322.741 268.578 322.303 269.111 322.189 269.045Z" fill="#FAFAFA"/>
<path d="M314.812 283.791C314.669 283.791 314.688 283.02 314.535 282.125C314.383 281.23 314.155 280.516 314.288 280.449C314.421 280.383 314.878 281.059 315.031 282.049C315.183 283.039 314.945 283.819 314.812 283.791Z" fill="#FAFAFA"/>
<path d="M306.91 292.216C306.815 292.311 306.339 291.949 305.854 291.416C305.368 290.883 305.054 290.378 305.159 290.283C305.264 290.188 305.73 290.55 306.216 291.083C306.701 291.616 307.015 292.121 306.91 292.216Z" fill="#FAFAFA"/>
<path d="M326.083 295.415C325.988 295.319 326.34 294.805 326.873 294.263C327.406 293.72 327.901 293.368 328.006 293.463C328.111 293.558 327.749 294.082 327.225 294.615C326.702 295.148 326.188 295.51 326.083 295.415Z" fill="#FAFAFA"/>
<path d="M315.059 308.028C314.926 308.028 314.926 307.276 315.059 306.401C315.192 305.525 315.402 304.839 315.545 304.858C315.688 304.877 315.678 305.601 315.545 306.477C315.411 307.352 315.192 308.047 315.059 308.028Z" fill="#FAFAFA"/>
<path d="M307.643 314.15C307.52 314.216 307.101 313.721 306.691 313.045C306.282 312.369 306.072 311.77 306.187 311.703C306.301 311.636 306.72 312.122 307.139 312.798C307.558 313.474 307.758 314.073 307.643 314.15Z" fill="#FAFAFA"/>
<path d="M325.512 321.87C325.598 321.985 325.113 322.47 324.427 322.956C323.742 323.441 323.142 323.746 323.056 323.631C322.971 323.517 323.466 323.032 324.142 322.546C324.817 322.061 325.436 321.766 325.512 321.87Z" fill="#FAFAFA"/>
<path d="M310.623 331.895C310.49 331.847 310.623 331.085 310.747 330.133C310.871 329.181 310.794 328.401 310.937 328.382C311.08 328.363 311.328 329.162 311.232 330.181C311.137 331.2 310.747 331.952 310.623 331.895Z" fill="#FAFAFA"/>
<path d="M316.573 346.289C316.458 346.374 316.059 346.051 315.668 345.565C315.278 345.08 315.059 344.613 315.164 344.527C315.269 344.442 315.668 344.765 316.059 345.251C316.449 345.736 316.677 346.203 316.573 346.289Z" fill="#FAFAFA"/>
<path d="M310.071 355.942C309.956 356.018 309.433 355.456 308.9 354.676C308.367 353.895 308.033 353.21 308.138 353.133C308.243 353.057 308.776 353.619 309.309 354.399C309.842 355.18 310.185 355.866 310.071 355.942Z" fill="#FAFAFA"/>
<path d="M327.978 343.823C327.854 343.775 327.863 343.423 327.978 343.042C328.092 342.662 328.349 342.376 328.482 342.424C328.616 342.471 328.597 342.823 328.482 343.214C328.368 343.604 328.111 343.88 327.978 343.823Z" fill="#FAFAFA"/>
<path d="M320.076 366.813C319.952 366.747 320.19 366.071 320.381 365.224C320.571 364.376 320.638 363.662 320.781 363.653C320.923 363.643 321.066 364.414 320.866 365.328C320.666 366.242 320.19 366.89 320.076 366.813Z" fill="#FAFAFA"/>
<path d="M325.217 219.694C325.093 219.751 324.789 219.37 324.541 218.837C324.294 218.304 324.189 217.828 324.313 217.771C324.436 217.714 324.741 218.094 324.989 218.627C325.236 219.161 325.36 219.637 325.217 219.694Z" fill="#FAFAFA"/>
<path d="M312.032 190.049C312.108 190.163 311.442 190.696 310.728 191.458C310.014 192.219 309.528 192.924 309.404 192.857C309.281 192.79 309.604 191.905 310.356 191.124C311.108 190.344 311.937 189.925 312.032 190.049Z" fill="#FAFAFA"/>
<path d="M323.77 189.744C323.627 189.744 323.408 189.202 323.075 188.554C322.741 187.907 322.437 187.374 322.541 187.279C322.646 187.183 323.16 187.602 323.493 188.326C323.827 189.049 323.893 189.668 323.77 189.744Z" fill="#FAFAFA"/>
<path d="M287.119 199.369C286.995 199.312 287.119 198.683 287.414 197.96C287.709 197.236 288.033 196.675 288.166 196.732C288.299 196.789 288.166 197.408 287.871 198.141C287.576 198.874 287.281 199.416 287.119 199.369Z" fill="#FAFAFA"/>
<path d="M288.308 213.744C288.213 213.848 287.671 213.544 287.09 213.058C286.509 212.573 286.138 212.106 286.195 211.992C286.252 211.878 286.833 212.192 287.414 212.678C287.994 213.163 288.394 213.639 288.308 213.744Z" fill="#FAFAFA"/>
<path d="M312.355 178.635C312.232 178.635 311.965 178.33 311.775 177.844C311.584 177.359 311.527 176.892 311.651 176.892C311.775 176.892 312.041 177.197 312.232 177.683C312.422 178.168 312.479 178.587 312.355 178.635Z" fill="#FAFAFA"/>
<path d="M335.384 185.66C335.25 185.66 335.26 185.06 335.384 184.384C335.508 183.709 335.755 183.175 335.888 183.204C336.022 183.233 336.012 183.813 335.888 184.489C335.765 185.165 335.517 185.689 335.384 185.66Z" fill="#FAFAFA"/>
<path d="M340.791 196.541C340.667 196.484 340.839 195.78 341.181 194.951C341.524 194.123 341.895 193.504 342.019 193.552C342.143 193.6 342.019 194.314 341.638 195.142C341.258 195.97 340.924 196.589 340.791 196.541Z" fill="#FAFAFA"/>
<path d="M336.935 205.319C336.812 205.376 336.355 204.719 335.917 203.852C335.479 202.986 335.231 202.215 335.355 202.158C335.479 202.101 335.926 202.758 336.364 203.624C336.802 204.49 337.059 205.252 336.935 205.319Z" fill="#FAFAFA"/>
<path d="M345.18 214.096C345.057 214.048 345.18 213.496 345.39 212.868C345.599 212.24 345.932 211.764 346.066 211.811C346.199 211.859 346.066 212.411 345.856 213.039C345.647 213.668 345.352 214.144 345.18 214.096Z" fill="#FAFAFA"/>
<path d="M337.812 222.692C337.698 222.769 337.402 222.512 337.164 222.131C336.926 221.75 336.812 221.369 336.936 221.293C337.06 221.217 337.336 221.474 337.583 221.864C337.831 222.255 337.926 222.626 337.812 222.692Z" fill="#FAFAFA"/>
<path d="M339.383 240.437C339.288 240.523 338.688 240.057 338.06 239.371C337.431 238.686 337.003 238.067 337.108 237.972C337.212 237.876 337.803 238.352 338.431 239.038C339.059 239.723 339.488 240.342 339.383 240.437Z" fill="#FAFAFA"/>
<path d="M349.045 230.242C348.94 230.327 348.417 229.851 347.883 229.166C347.35 228.48 347.008 227.871 347.112 227.785C347.217 227.7 347.741 228.185 348.274 228.861C348.807 229.537 349.159 230.165 349.045 230.242Z" fill="#FAFAFA"/>
<path d="M354.348 244.303C354.224 244.245 354.443 243.531 354.833 242.713C355.224 241.894 355.633 241.266 355.785 241.323C355.938 241.38 355.7 242.103 355.309 242.922C354.919 243.741 354.472 244.369 354.348 244.303Z" fill="#FAFAFA"/>
<path d="M343.076 255.879C342.952 255.945 342.514 255.422 341.905 254.86C341.296 254.298 340.734 253.908 340.791 253.765C340.848 253.622 341.572 253.879 342.238 254.498C342.905 255.117 343.19 255.812 343.076 255.879Z" fill="#FAFAFA"/>
<path d="M343.781 267.807C343.781 267.94 343.305 268.054 342.724 268.054C342.143 268.054 341.677 267.94 341.677 267.807C341.677 267.674 342.143 267.559 342.724 267.559C343.305 267.559 343.781 267.674 343.781 267.807Z" fill="#FAFAFA"/>
<path d="M355.366 264.475C355.243 264.408 355.49 263.809 355.671 263.066C355.852 262.324 355.928 261.676 356.071 261.667C356.214 261.657 356.366 262.352 356.157 263.18C355.947 264.009 355.471 264.551 355.366 264.475Z" fill="#FAFAFA"/>
<path d="M366.876 268.483C366.752 268.53 366.4 267.855 366.095 266.988C365.791 266.122 365.648 265.379 365.772 265.341C365.895 265.303 366.257 265.96 366.562 266.826C366.866 267.693 367.009 268.435 366.876 268.483Z" fill="#FAFAFA"/>
<path d="M365.038 284.857C364.924 284.79 365.219 283.991 365.695 283.067C366.171 282.144 366.647 281.449 366.79 281.516C366.933 281.582 366.619 282.382 366.133 283.296C365.648 284.21 365.162 284.943 365.038 284.857Z" fill="#FAFAFA"/>
<path d="M354.538 294.463C354.414 294.51 354.024 293.853 353.662 292.987C353.3 292.121 353.119 291.378 353.253 291.321C353.386 291.264 353.767 291.93 354.119 292.797C354.471 293.663 354.662 294.463 354.538 294.463Z" fill="#FAFAFA"/>
<path d="M342.905 298.185C342.905 298.318 342.505 298.432 342.02 298.432C341.534 298.432 341.144 298.318 341.144 298.185C341.144 298.052 341.544 297.937 342.02 297.937C342.496 297.937 342.905 298.052 342.905 298.185Z" fill="#FAFAFA"/>
<path d="M349.569 313.502C349.445 313.502 349.179 312.979 348.979 312.255C348.779 311.532 348.741 310.903 348.874 310.875C349.007 310.846 349.264 311.398 349.464 312.122C349.664 312.845 349.702 313.426 349.569 313.502Z" fill="#FAFAFA"/>
<path d="M341.143 308.362C341.029 308.295 341.143 307.848 341.457 307.362C341.771 306.876 342.086 306.543 342.2 306.61C342.314 306.677 342.2 307.134 341.886 307.619C341.572 308.105 341.267 308.438 341.143 308.362Z" fill="#FAFAFA"/>
<path d="M340.972 325.221C340.839 325.221 340.649 324.583 340.553 323.755C340.458 322.927 340.487 322.251 340.62 322.232C340.753 322.213 340.944 322.87 341.039 323.698C341.134 324.526 341.106 325.202 340.972 325.221Z" fill="#FAFAFA"/>
</svg>
