<svg xmlns="http://www.w3.org/2000/svg" width="104" height="44" fill="none" viewBox="0 0 104 44"><g id="Vector"><path fill="#000" fill-rule="evenodd" d="M19.172 36.1379L19.1649 36.1451C18.9648 36.378 18.681 36.4948 18.3134 36.4955L10.7939 36.5094C10.4597 36.5101 10.1754 36.3943 9.94105 36.1622C9.70668 35.9301 9.58918 35.6479 9.58856 35.3157L9.54183 10.399C9.54121 10.0667 9.42371 9.78458 9.18934 9.55246C8.98838 9.32027 8.7041 9.20452 8.33648 9.2052L1.21807 9.21839C0.883868 9.21901 0.599581 9.10326 0.365207 8.87114C0.130832 8.63901 0.0133332 8.35684 0.0127102 8.02462L2.4855e-06 1.24728C-0.000620367 0.915057 0.115819 0.632451 0.349322 0.399462C0.582824 0.166472 0.866674 0.0496676 1.20087 0.0490482L27.6693 2.98501e-06C28.037 -0.000677753 28.3212 0.115074 28.5222 0.347259C28.7566 0.579381 28.8741 0.861553 28.8747 1.19378L28.8874 7.97111C28.8875 7.99937 28.8867 8.02727 28.885 8.05481C28.992 8.24384 29.0457 8.45944 29.0461 8.70164L29.0518 11.7277C28.2584 11.4718 27.4247 11.3392 26.5803 11.3392C24.8995 11.3392 23.2613 11.8648 21.8978 12.8417C20.5342 13.8186 19.5145 15.1971 18.9829 16.7821C18.4514 18.367 18.4351 20.0781 18.9362 21.6728C19.4374 23.2675 20.4307 24.665 21.7753 25.6674C22.0063 25.8396 22.2874 25.9327 22.5761 25.9327H29.2496V27.2594H23.9109L23.7547 27.2687C23.43 27.3067 23.1307 27.4619 22.9135 27.7047C22.6962 27.9475 22.5762 28.2612 22.5761 28.5861C22.5761 29.6417 22.998 30.654 23.7489 31.4005C24.4999 32.1469 25.5183 32.5662 26.5803 32.5662C27.4973 32.5662 28.3818 32.2536 29.0896 31.6877L29.1107 42.7877C29.1113 43.1199 29.0116 43.4025 28.8115 43.6354C28.578 43.8684 28.2774 43.9852 27.9098 43.9859L20.3901 44C20.0559 44.0006 19.7716 43.8849 19.5372 43.6528C19.3028 43.4206 19.1853 43.1385 19.1847 42.8062L19.172 36.1379ZM16.8173 18.3346C16.5699 18.1025 16.2427 17.973 15.9025 17.9726H14.5678L14.4116 17.9819C14.0738 18.0218 13.7641 18.1885 13.5458 18.4478C13.3274 18.7071 13.2169 19.0395 13.2368 19.3771C13.2568 19.7146 13.4056 20.0319 13.653 20.264C13.9004 20.4961 14.2276 20.6256 14.5678 20.626H15.9025L16.0587 20.6167C16.3965 20.5768 16.7062 20.4101 16.9246 20.1508C17.1429 19.8915 17.2534 19.5591 17.2335 19.2216C17.2135 18.884 17.0647 18.5667 16.8173 18.3346ZM27.4671 6.36769C27.2228 6.15176 26.9072 6.03246 26.5803 6.03242C26.2263 6.03242 25.8868 6.17219 25.6365 6.421C25.3862 6.6698 25.2456 7.00725 25.2456 7.35911V8.6858L25.2549 8.84102C25.2951 9.1768 25.4628 9.48465 25.7237 9.70169C25.9845 9.91872 26.3189 10.0285 26.6585 10.0087C26.9982 9.98892 27.3173 9.84095 27.5509 9.59507C27.7844 9.34918 27.9147 9.02394 27.915 8.6858V7.35911L27.9057 7.20389C27.8675 6.88117 27.7114 6.58362 27.4671 6.36769ZM17.9544 9.48461C17.63 9.50488 17.3243 9.6421 17.0944 9.87053C16.8442 10.1193 16.7036 10.4567 16.7036 10.8085C16.7036 11.1603 16.8442 11.4977 17.0944 11.7465L18.0287 12.6751L18.1542 12.7853C18.4225 12.9914 18.7596 13.0884 19.0972 13.0564C19.4348 13.0245 19.7475 12.866 19.9718 12.6132C20.196 12.3603 20.3151 12.0321 20.3048 11.6952C20.2944 11.3583 20.1554 11.038 19.916 10.7992L18.9817 9.87053L18.8563 9.76041C18.5995 9.5624 18.2788 9.46434 17.9544 9.48461Z" clip-rule="evenodd"/><path fill="#000" d="M47.4432 19.4581H46.2552C46.1668 19.0184 46.0067 18.6122 45.775 18.2394C45.5475 17.8625 45.261 17.5338 44.9156 17.2532C44.5701 16.9726 44.1784 16.7549 43.7402 16.5999C43.3021 16.445 42.8282 16.3675 42.3185 16.3675C41.5012 16.3675 40.7556 16.579 40.0815 17.002C39.4117 17.4249 38.8746 18.0468 38.4702 18.8676C38.07 19.6842 37.8699 20.6851 37.8699 21.8703C37.8699 23.0638 38.07 24.0688 38.4702 24.8855C38.8746 25.7021 39.4117 26.3219 40.0815 26.7448C40.7556 27.1636 41.5012 27.373 42.3185 27.373C42.8282 27.373 43.3021 27.2955 43.7402 27.1406C44.1784 26.9856 44.5701 26.77 44.9156 26.4936C45.261 26.213 45.5475 25.8842 45.775 25.5073C46.0067 25.1304 46.1668 24.7221 46.2552 24.2824H47.4432C47.3379 24.8729 47.1399 25.4236 46.8492 25.9345C46.5627 26.4412 46.1962 26.8851 45.7497 27.2662C45.3074 27.6473 44.7976 27.9446 44.2205 28.1582C43.6434 28.3718 43.0093 28.4786 42.3185 28.4786C41.2316 28.4786 40.2669 28.2085 39.4244 27.6682C38.5818 27.1238 37.9204 26.3575 37.4402 25.3691C36.9642 24.3808 36.7261 23.2145 36.7261 21.8703C36.7261 20.526 36.9642 19.3597 37.4402 18.3714C37.9204 17.383 38.5818 16.6188 39.4244 16.0786C40.2669 15.5341 41.2316 15.2619 42.3185 15.2619C43.0093 15.2619 43.6434 15.3687 44.2205 15.5823C44.7976 15.7917 45.3074 16.089 45.7497 16.4743C46.1962 16.8554 46.5627 17.2993 46.8492 17.806C47.1399 18.3127 47.3379 18.8634 47.4432 19.4581Z"/><path fill="#000" d="M49.985 28.3027V18.654H51.0782V20.1365H51.1604C51.3541 19.6507 51.6912 19.2592 52.1714 18.9618C52.6559 18.6603 53.2035 18.5096 53.8143 18.5096C53.907 18.5096 54.0102 18.5117 54.124 18.5158C54.2377 18.52 54.3325 18.5242 54.4083 18.5284V19.6654C54.3578 19.657 54.2693 19.6444 54.1429 19.6277C54.0166 19.6109 53.8796 19.6026 53.7322 19.6026C53.2267 19.6026 52.7759 19.7094 52.3799 19.9229C51.9881 20.1323 51.6785 20.4234 51.451 20.7961C51.2235 21.1688 51.1098 21.5939 51.1098 22.0713V28.3027H49.985Z"/><path fill="#000" d="M59.9564 28.5037C59.0507 28.5037 58.2671 28.2943 57.6058 27.8755C56.9444 27.4526 56.4325 26.8684 56.0702 26.1229C55.7122 25.3733 55.5331 24.5106 55.5331 23.5349C55.5331 22.5633 55.7122 21.7006 56.0702 20.9468C56.4325 20.1889 56.9317 19.5963 57.5678 19.1691C58.2082 18.7378 58.9475 18.5221 59.7858 18.5221C60.3124 18.5221 60.82 18.6184 61.3087 18.8111C61.7974 18.9995 62.2355 19.2906 62.6231 19.6842C63.0148 20.0737 63.3245 20.5658 63.552 21.1604C63.7794 21.7509 63.8932 22.4503 63.8932 23.2585V23.8113H56.3104V22.8251H62.7431C62.7431 22.2053 62.6167 21.6483 62.364 21.1541C62.1154 20.6558 61.7679 20.2621 61.3213 19.9732C60.879 19.6842 60.3672 19.5398 59.7858 19.5398C59.1708 19.5398 58.6294 19.7031 58.1618 20.0297C57.6942 20.3564 57.3277 20.7877 57.0623 21.3237C56.8011 21.8598 56.6684 22.4461 56.6642 23.0826V23.6731C56.6642 24.4395 56.7969 25.1095 57.0623 25.6832C57.3319 26.2528 57.7132 26.6946 58.2061 27.0087C58.6989 27.3227 59.2824 27.4798 59.9564 27.4798C60.4156 27.4798 60.8179 27.4086 61.1634 27.2662C61.513 27.1238 61.8058 26.9333 62.0417 26.6946C62.2818 26.4517 62.463 26.1858 62.5851 25.8968L63.6531 26.2423C63.5056 26.6485 63.2634 27.0233 62.9264 27.3667C62.5936 27.7101 62.1765 27.9865 61.6752 28.1959C61.1781 28.4011 60.6052 28.5037 59.9564 28.5037Z"/><path fill="#000" d="M69.0827 28.5225C68.4971 28.5225 67.9621 28.4095 67.4776 28.1833C66.9932 27.953 66.6077 27.6222 66.3213 27.1908C66.0348 26.7553 65.8916 26.2276 65.8916 25.6078C65.8916 25.1304 65.9821 24.7284 66.1633 24.4018C66.3444 24.0751 66.6014 23.8071 66.9342 23.5977C67.267 23.3883 67.6609 23.2229 68.1159 23.1015C68.5708 22.98 69.0721 22.8858 69.6198 22.8188C70.1632 22.7518 70.6224 22.6932 70.9973 22.6429C71.3765 22.5926 71.665 22.5131 71.863 22.4042C72.061 22.2953 72.16 22.1194 72.16 21.8765V21.6504C72.16 20.9929 71.962 20.4757 71.566 20.0988C71.1743 19.7177 70.6098 19.5272 69.8726 19.5272C69.1732 19.5272 68.6024 19.68 68.1601 19.9858C67.722 20.2915 67.4145 20.6516 67.2375 21.0662L66.1696 20.683C66.3887 20.1554 66.692 19.7345 67.0795 19.4204C67.4671 19.1021 67.901 18.8739 68.3813 18.7357C68.8615 18.5933 69.3481 18.5221 69.841 18.5221C70.2117 18.5221 70.5971 18.5703 70.9973 18.6666C71.4018 18.7629 71.7767 18.9304 72.1221 19.1691C72.4676 19.4037 72.7477 19.7324 72.9626 20.1554C73.1774 20.5741 73.2848 21.106 73.2848 21.7509V28.3027H72.16V26.7762H72.0905C71.9557 27.061 71.7556 27.3374 71.4902 27.6054C71.2248 27.8734 70.892 28.0933 70.4918 28.265C70.0916 28.4367 69.6219 28.5225 69.0827 28.5225ZM69.2343 27.4986C69.8325 27.4986 70.3507 27.3667 70.7888 27.1029C71.2269 26.8391 71.5639 26.4894 71.7999 26.0538C72.04 25.6141 72.16 25.1304 72.16 24.6028V23.2083C72.0758 23.2878 71.9347 23.359 71.7367 23.4218C71.5429 23.4846 71.3175 23.5412 71.0605 23.5914C70.8078 23.6375 70.555 23.6773 70.3022 23.7108C70.0495 23.7443 69.822 23.7736 69.6198 23.7987C69.0721 23.8657 68.6045 23.9704 68.217 24.1128C67.8294 24.2552 67.5324 24.452 67.326 24.7033C67.1196 24.9504 67.0164 25.2686 67.0164 25.6581C67.0164 26.2444 67.227 26.6988 67.6483 27.0212C68.0695 27.3395 68.5982 27.4986 69.2343 27.4986Z"/><path fill="#000" d="M80.0999 18.654V19.6277H75.468V18.654H80.0999ZM76.9151 16.3424H78.0462V25.7837C78.0462 26.1858 78.1157 26.5019 78.2547 26.7323C78.3937 26.9584 78.5749 27.1196 78.7982 27.216C79.0214 27.3081 79.2595 27.3542 79.5122 27.3542C79.6597 27.3542 79.786 27.3458 79.8914 27.329C79.9967 27.3081 80.0894 27.2871 80.1694 27.2662L80.4095 28.2776C80.3 28.3194 80.1652 28.3571 80.0051 28.3906C79.845 28.4283 79.647 28.4472 79.4111 28.4472C78.9983 28.4472 78.6002 28.3571 78.2168 28.177C77.8377 27.997 77.5259 27.729 77.2816 27.373C77.0373 27.017 76.9151 26.5752 76.9151 26.0476V16.3424Z"/><path fill="#000" d="M82.667 28.3027V18.654H83.7981V28.3027H82.667ZM83.242 16.9957C83.0103 16.9957 82.8123 16.9182 82.648 16.7633C82.4837 16.6041 82.4016 16.4136 82.4016 16.1916C82.4016 15.9697 82.4837 15.7812 82.648 15.6263C82.8123 15.4671 83.0103 15.3876 83.242 15.3876C83.4737 15.3876 83.6717 15.4671 83.836 15.6263C84.0003 15.7812 84.0824 15.9697 84.0824 16.1916C84.0824 16.4136 84.0003 16.6041 83.836 16.7633C83.6717 16.9182 83.4737 16.9957 83.242 16.9957Z"/><path fill="#000" d="M94.2861 18.654L90.7411 28.3027H89.5405L85.9955 18.654H87.2151L90.0966 26.8265H90.185L93.0665 18.654H94.2861Z"/><path fill="#000" d="M100.063 28.5037C99.1575 28.5037 98.374 28.2943 97.7126 27.8755C97.0512 27.4526 96.5393 26.8684 96.177 26.1229C95.819 25.3733 95.6399 24.5106 95.6399 23.5349C95.6399 22.5633 95.819 21.7006 96.177 20.9468C96.5393 20.1889 97.0385 19.5963 97.6747 19.1691C98.315 18.7378 99.0543 18.5221 99.8926 18.5221C100.419 18.5221 100.927 18.6184 101.416 18.8111C101.904 18.9995 102.342 19.2906 102.73 19.6842C103.122 20.0737 103.431 20.5658 103.659 21.1604C103.886 21.7509 104 22.4503 104 23.2585V23.8113H96.4172V22.8251H102.85C102.85 22.2053 102.724 21.6483 102.471 21.1541C102.222 20.6558 101.875 20.2621 101.428 19.9732C100.986 19.6842 100.474 19.5398 99.8926 19.5398C99.2776 19.5398 98.7363 19.7031 98.2686 20.0297C97.801 20.3564 97.4345 20.7877 97.1691 21.3237C96.908 21.8598 96.7753 22.4461 96.771 23.0826V23.6731C96.771 24.4395 96.9037 25.1095 97.1691 25.6832C97.4388 26.2528 97.82 26.6946 98.3129 27.0087C98.8058 27.3227 99.3892 27.4798 100.063 27.4798C100.522 27.4798 100.925 27.4086 101.27 27.2662C101.62 27.1238 101.913 26.9333 102.149 26.6946C102.389 26.4517 102.57 26.1858 102.692 25.8968L103.76 26.2423C103.612 26.6485 103.37 27.0233 103.033 27.3667C102.7 27.7101 102.283 27.9865 101.782 28.1959C101.285 28.4011 100.712 28.5037 100.063 28.5037Z"/><path fill="#000" d="M37.3075 43.3385V30.4736H38.4891V36.3721H45.8318V30.4736H47.0135V43.3385H45.8318V37.4274H38.4891V43.3385H37.3075Z"/><path fill="#000" d="M56.3783 39.6511V33.6898H57.5031V43.3385H56.3783V41.7367H56.2898C56.0623 42.2308 55.7022 42.6433 55.2093 42.9742C54.7164 43.3008 54.114 43.4641 53.402 43.4641C52.7828 43.4641 52.233 43.3301 51.7528 43.0621C51.2725 42.7899 50.8955 42.392 50.6217 41.8686C50.3478 41.3451 50.2109 40.7023 50.2109 39.9401V33.6898H51.3357V39.871C51.3357 40.6248 51.559 41.232 52.0055 41.6927C52.4521 42.1492 53.025 42.3774 53.7243 42.3774C54.1624 42.3774 54.5837 42.2727 54.9881 42.0633C55.3925 41.8539 55.7253 41.5482 55.9865 41.1462C56.2477 40.74 56.3783 40.2416 56.3783 39.6511Z"/><path fill="#000" d="M60.7147 43.3385V30.4736H61.8458V35.5304H61.9469C62.0733 35.2414 62.2545 34.9441 62.4904 34.6384C62.7305 34.3327 63.0443 34.0772 63.4319 33.872C63.8237 33.6626 64.3166 33.5579 64.9105 33.5579C65.7067 33.5579 66.406 33.7673 67.0085 34.1861C67.6109 34.6007 68.0806 35.1828 68.4176 35.9324C68.7546 36.6778 68.9231 37.5468 68.9231 38.5393C68.9231 39.536 68.7546 40.4091 68.4176 41.1587C68.0848 41.9084 67.6172 42.4926 67.0148 42.9113C66.4166 43.3301 65.7215 43.5395 64.9295 43.5395C64.3397 43.5395 63.8468 43.4348 63.4509 43.2254C63.0591 43.016 62.7431 42.7585 62.503 42.4528C62.2629 42.1429 62.0775 41.8414 61.9469 41.5482H61.8079V43.3385H60.7147ZM61.8269 38.5204C61.8269 39.2994 61.9427 39.9904 62.1744 40.5934C62.4103 41.1922 62.7473 41.6634 63.1855 42.0068C63.6278 42.346 64.1628 42.5156 64.7905 42.5156C65.435 42.5156 65.9806 42.3397 66.4271 41.9879C66.8736 41.632 67.2128 41.1525 67.4445 40.5494C67.6762 39.9464 67.792 39.2701 67.792 38.5204C67.792 37.7792 67.6762 37.1113 67.4445 36.5166C67.217 35.9219 66.88 35.4508 66.4334 35.1032C65.9869 34.7514 65.4392 34.5756 64.7905 34.5756C64.1586 34.5756 63.6215 34.7452 63.1791 35.0844C62.741 35.4194 62.4061 35.8842 62.1744 36.4789C61.9427 37.0694 61.8269 37.7499 61.8269 38.5204Z"/><path fill="#000" d="M36.5004 3.52904V1.28649H47.129V3.52904H43.167V14.1513H40.4624V3.52904H36.5004Z"/><path fill="#000" d="M51.5207 8.57322V14.1513H48.8288V1.28649H51.4449V6.20503H51.5586C51.7777 5.63549 52.1315 5.1895 52.6202 4.86704C53.1089 4.54039 53.7218 4.37707 54.459 4.37707C55.1331 4.37707 55.7207 4.52364 56.222 4.81678C56.7276 5.10574 57.1194 5.52242 57.3974 6.06684C57.6796 6.60706 57.8187 7.25407 57.8144 8.00787V14.1513H55.1225V8.48528C55.1268 7.89061 54.9751 7.42786 54.6676 7.09703C54.3643 6.76619 53.9388 6.60078 53.3911 6.60078C53.0246 6.60078 52.7003 6.67825 52.418 6.8332C52.14 6.98815 51.9209 7.21429 51.7608 7.51162C51.605 7.80476 51.5249 8.15863 51.5207 8.57322Z"/><path fill="#000" d="M59.9329 14.1513V4.5027H62.6248V14.1513H59.9329ZM61.2852 3.25893C60.885 3.25893 60.5416 3.12701 60.2552 2.86318C59.9729 2.59517 59.8318 2.2748 59.8318 1.90209C59.8318 1.53356 59.9729 1.21739 60.2552 0.953557C60.5416 0.685539 60.885 0.55153 61.2852 0.55153C61.6854 0.55153 62.0266 0.685539 62.3088 0.953557C62.5953 1.21739 62.7385 1.53356 62.7385 1.90209C62.7385 2.2748 62.5953 2.59517 62.3088 2.86318C62.0266 3.12701 61.6854 3.25893 61.2852 3.25893Z"/><path fill="#000" d="M67.4731 8.57322V14.1513H64.7812V4.5027H67.3467V6.20503H67.4604C67.6753 5.64387 68.0355 5.19997 68.541 4.87332C69.0465 4.54248 69.6594 4.37707 70.3798 4.37707C71.0538 4.37707 71.6415 4.52364 72.1428 4.81678C72.6441 5.10993 73.0338 5.52871 73.3118 6.07312C73.5899 6.61334 73.7289 7.25826 73.7289 8.00787V14.1513H71.037V8.48528C71.0412 7.8948 70.8895 7.43415 70.582 7.10331C70.2745 6.76829 69.8511 6.60078 69.3119 6.60078C68.9496 6.60078 68.6294 6.67825 68.3514 6.8332C68.0776 6.98815 67.8627 7.21429 67.7069 7.51162C67.5552 7.80476 67.4773 8.15863 67.4731 8.57322Z"/><path fill="#000" d="M78.2896 11.3748L78.296 8.16491H78.6877L81.7967 4.5027H84.8867L80.7098 9.35215H80.0716L78.2896 11.3748ZM75.8505 14.1513V1.28649H78.5424V14.1513H75.8505ZM81.9168 14.1513L79.0606 9.94891L80.8552 8.05812L85.07 14.1513H81.9168Z"/></g></svg>